<svg width="121" height="120" viewBox="0 0 121 120" fill="none" xmlns="http://www.w3.org/2000/svg">
<path d="M9.35109 112.044C9.35109 112.078 32.2543 112.106 60.4975 112.106C88.7407 112.106 111.649 112.08 111.649 112.044C111.649 112.008 88.7503 111.982 60.4975 111.982C32.2447 111.982 9.35109 112.008 9.35109 112.044Z" fill="#3E4551"/>
<path d="M56.3744 103.781C56.3597 103.771 56.3429 103.766 56.3255 103.765C56.3082 103.764 56.2909 103.768 56.2753 103.776C56.2598 103.783 56.2465 103.795 56.2367 103.809C56.227 103.824 56.2211 103.84 56.2197 103.858C56.2183 103.875 56.2214 103.892 56.2287 103.908C56.236 103.924 56.2472 103.938 56.2614 103.948C56.2755 103.958 56.292 103.964 56.3093 103.966C56.3265 103.968 56.344 103.965 56.36 103.958C56.3757 103.95 56.389 103.938 56.3988 103.923C56.4086 103.908 56.4145 103.891 56.4159 103.874C56.4174 103.856 56.4143 103.838 56.407 103.822C56.3998 103.806 56.3885 103.792 56.3744 103.781Z" fill="white"/>
<path d="M35.2998 32.8969L31.6182 34.5528C31.6182 34.5528 37.3782 42.7488 38.5566 44.0688C39.735 45.3888 51.3462 47.04 51.3462 47.04L51.9006 42.1848L42.003 40.5048L35.2998 32.8969Z" fill="#6869AC"/>
<path d="M39.0753 44.4577C39.0969 44.4577 39.1233 44.1649 39.2481 43.7137C39.3219 43.4498 39.4166 43.1922 39.5313 42.9433C39.6764 42.6416 39.8466 42.3526 40.0401 42.0793C40.241 41.8106 40.4651 41.5601 40.7097 41.3305C40.9105 41.1442 41.1265 40.9748 41.3553 40.8241C41.7465 40.5649 42.0177 40.4521 42.0081 40.4329C41.9985 40.4137 41.9361 40.4473 41.8113 40.4953C41.6363 40.5654 41.4676 40.6505 41.3073 40.7497C41.0673 40.8939 40.8408 41.0593 40.6304 41.2441C40.3769 41.4756 40.1455 41.7303 39.9392 42.0049C39.7392 42.2845 39.5679 42.5836 39.4281 42.8977C39.3146 43.1535 39.2254 43.4195 39.1617 43.6921C39.1168 43.8748 39.0879 44.0611 39.0753 44.2489C39.0629 44.3179 39.0629 44.3886 39.0753 44.4577Z" fill="white"/>
<path d="M39.8335 42.6049C39.9531 42.6563 40.0767 42.6981 40.2031 42.7297C40.4431 42.8041 40.7935 42.9049 41.2255 43.0225C42.0919 43.2625 43.2943 43.5553 44.6359 43.8385C45.9775 44.1217 47.1991 44.3305 48.0847 44.4649C48.5287 44.5321 48.8887 44.5801 49.1383 44.6089C49.2667 44.6309 49.3968 44.6422 49.5271 44.6425C49.4024 44.6045 49.2748 44.5772 49.1455 44.5609L48.0991 44.3761C47.2183 44.2225 45.9991 43.9969 44.6599 43.7161C43.3207 43.4353 42.1183 43.1497 41.2471 42.9361L40.2151 42.6841C40.0908 42.6454 39.963 42.6189 39.8335 42.6049Z" fill="white"/>
<path d="M34.34 33.4321C34.3136 33.4537 35.804 35.1817 37.6664 37.2889C39.5288 39.3961 41.06 41.0881 41.0984 41.0665C41.1368 41.0449 39.6344 39.3145 37.772 37.2073C35.9096 35.1001 34.3784 33.4081 34.34 33.4321Z" fill="white"/>
<path d="M39.032 39.2641C39.0173 39.2562 39.001 39.252 38.9844 39.2517C38.9677 39.2513 38.9513 39.255 38.9363 39.2622C38.9213 39.2695 38.9083 39.2801 38.8982 39.2934C38.8882 39.3067 38.8814 39.3221 38.8784 39.3385C38.8768 39.3558 38.8798 39.3733 38.8869 39.3892C38.8941 39.4051 38.9053 39.4189 38.9194 39.4292C38.9335 39.4394 38.9501 39.4459 38.9674 39.4478C38.9847 39.4498 39.0023 39.4473 39.0183 39.4404C39.0344 39.4336 39.0484 39.4227 39.059 39.4088C39.0695 39.3949 39.0763 39.3785 39.0787 39.3612C39.081 39.344 39.0788 39.3264 39.0723 39.3102C39.0658 39.294 39.0553 39.2797 39.0416 39.2689" fill="white"/>
<path d="M45.0608 43.1712C45.0462 43.1628 45.0297 43.1581 45.0129 43.1575C44.9961 43.1569 44.9794 43.1605 44.9643 43.1678C44.9491 43.1751 44.936 43.1861 44.926 43.1996C44.9161 43.2132 44.9096 43.229 44.9071 43.2456C44.9052 43.2632 44.908 43.2809 44.915 43.2971C44.9221 43.3132 44.9333 43.3272 44.9475 43.3377C44.9617 43.3482 44.9784 43.3547 44.9959 43.3567C45.0135 43.3587 45.0312 43.3561 45.0474 43.3491C45.0636 43.3421 45.0776 43.331 45.0882 43.3168C45.0987 43.3027 45.1054 43.286 45.1075 43.2685C45.1095 43.251 45.107 43.2332 45.1 43.217C45.0931 43.2008 45.082 43.1866 45.068 43.176" fill="white"/>
<path d="M42.1614 42.528C42.1466 42.5202 42.1301 42.516 42.1133 42.5158C42.0965 42.5156 42.0799 42.5194 42.0649 42.527C42.0499 42.5345 42.0369 42.5454 42.027 42.559C42.017 42.5725 42.0105 42.5882 42.0079 42.6048C42.0081 42.6214 42.0123 42.6377 42.0201 42.6524C42.0278 42.6671 42.0389 42.6798 42.0525 42.6894C42.066 42.6989 42.0817 42.7052 42.0981 42.7076C42.1145 42.71 42.1313 42.7085 42.147 42.7032C42.162 42.6958 42.1749 42.6848 42.1846 42.6713C42.1944 42.6577 42.2007 42.642 42.2031 42.6255C42.2054 42.609 42.2037 42.5922 42.1982 42.5764C42.1926 42.5607 42.1833 42.5466 42.1711 42.5352" fill="white"/>
<path d="M37.3879 37.4184C37.3733 37.41 37.3569 37.4053 37.3401 37.4047C37.3233 37.4041 37.3066 37.4077 37.2914 37.415C37.2763 37.4223 37.2631 37.4332 37.2532 37.4468C37.2432 37.4604 37.2367 37.4762 37.2343 37.4928C37.2324 37.5104 37.2351 37.5281 37.2422 37.5443C37.2493 37.5604 37.2605 37.5744 37.2747 37.5849C37.2889 37.5954 37.3056 37.6019 37.3231 37.6039C37.3406 37.6059 37.3584 37.6033 37.3745 37.5963C37.3907 37.5893 37.4048 37.5781 37.4153 37.564C37.4259 37.5499 37.4325 37.5332 37.4346 37.5157C37.4367 37.4982 37.4341 37.4804 37.4272 37.4642C37.4203 37.448 37.4092 37.4338 37.3951 37.4232" fill="white"/>
<path d="M35.6647 35.4649C35.6501 35.455 35.6332 35.4492 35.6157 35.4479C35.5981 35.4466 35.5805 35.4499 35.5647 35.4576C35.5488 35.4652 35.5352 35.4768 35.5253 35.4913C35.5153 35.5058 35.5093 35.5226 35.5078 35.5402C35.5064 35.5577 35.5096 35.5753 35.5171 35.5912C35.5245 35.6072 35.536 35.6209 35.5504 35.631C35.5648 35.6411 35.5816 35.6472 35.5991 35.6488C35.6167 35.6504 35.6343 35.6474 35.6503 35.6401C35.666 35.6321 35.6794 35.6202 35.6893 35.6056C35.6991 35.591 35.705 35.5741 35.7064 35.5565C35.7079 35.5389 35.7048 35.5213 35.6975 35.5052C35.6902 35.4892 35.6789 35.4753 35.6647 35.4649Z" fill="white"/>
<g opacity="0.3">
<path d="M42.5815 40.9825C42.5551 41.1529 44.0479 41.5369 45.9151 41.8393C47.7823 42.1417 49.3231 42.2473 49.3495 42.0793C49.3759 41.9113 47.8855 41.5273 46.0159 41.2249C44.1463 40.9225 42.6103 40.8121 42.5815 40.9825Z" fill="white"/>
</g>
<path d="M47.5712 43.6201C47.5566 43.6102 47.5397 43.6044 47.5222 43.6031C47.5046 43.6018 47.487 43.6052 47.4712 43.6128C47.4553 43.6204 47.4417 43.632 47.4318 43.6465C47.4218 43.661 47.4158 43.6779 47.4143 43.6954C47.4129 43.7129 47.4161 43.7305 47.4235 43.7465C47.431 43.7624 47.4425 43.7761 47.4569 43.7862C47.4713 43.7963 47.4881 43.8024 47.5056 43.804C47.5232 43.8056 47.5408 43.8026 47.5568 43.7953C47.5725 43.7873 47.5859 43.7754 47.5957 43.7608C47.6056 43.7462 47.6115 43.7293 47.6129 43.7117C47.6144 43.6941 47.6113 43.6765 47.604 43.6605C47.5967 43.6444 47.5854 43.6305 47.5712 43.6201Z" fill="white"/>
<path d="M52.9399 41.4721C52.4361 41.3096 51.895 41.3024 51.387 41.4513C50.879 41.6002 50.4275 41.8985 50.0911 42.3073C49.7671 42.7255 49.5472 43.2147 49.4496 43.7347C49.3519 44.2547 49.3793 44.7904 49.5295 45.2977C49.8151 46.3129 51.1687 47.6833 52.0855 48.0649" fill="#3E4551"/>
<path d="M30.6344 33.4321C30.3199 33.0225 30.0481 32.5818 29.8232 32.1169C29.5973 31.6497 29.5202 31.1245 29.6024 30.6121C29.6457 30.3572 29.7523 30.1172 29.9125 29.9142C30.0727 29.7113 30.2813 29.5518 30.5192 29.4505C30.7604 29.3575 31.0263 29.351 31.2718 29.4319C31.5172 29.5129 31.7271 29.6763 31.8656 29.8945L30.8888 27.9745C30.7688 27.7345 30.6488 27.4393 30.8072 27.2257C30.8908 27.1346 31.005 27.0774 31.128 27.065C31.251 27.0526 31.3743 27.0859 31.4744 27.1585C31.6697 27.3105 31.8233 27.5095 31.9208 27.7369L33.3608 30.4465L34.6376 28.4473C34.7672 28.2457 34.952 28.0153 35.1896 28.0537C35.2825 28.0785 35.3644 28.134 35.4218 28.211C35.4793 28.2881 35.5091 28.3824 35.5064 28.4785C35.4936 28.6716 35.4378 28.8593 35.3432 29.0281C34.9712 29.8153 34.2968 31.6081 34.2968 31.6081L30.6344 33.4321Z" fill="#6869AC"/>
<path d="M52.0856 47.9281C52.1048 47.9089 51.7568 47.6425 51.3392 47.0929C51.0944 46.7737 50.9061 46.4149 50.7824 46.0321C50.6382 45.5608 50.5876 45.0659 50.6336 44.5753C50.7003 43.6768 50.9934 42.8099 51.4856 42.0553C51.6179 41.8198 51.8007 41.6165 52.0208 41.4601C52.108 41.4115 52.1996 41.3713 52.2944 41.3401C52.2675 41.3349 52.2398 41.3349 52.2128 41.3401C52.1373 41.3532 52.0644 41.3783 51.9968 41.4145C51.7579 41.5624 51.5573 41.7647 51.4112 42.0049C50.8856 42.7618 50.5739 43.6465 50.5088 44.5657C50.4559 45.0755 50.5073 45.5908 50.66 46.0801C50.7931 46.4729 50.9955 46.8386 51.2576 47.1601C51.4302 47.3757 51.6222 47.5749 51.8312 47.7553C51.9092 47.8223 51.9946 47.8803 52.0856 47.9281Z" fill="#A2A3A8"/>
<path d="M35.2999 32.8969C34.3013 33.5354 33.2587 34.1024 32.1799 34.5936C31.7503 34.7928 31.2199 34.9776 30.8311 34.7016C30.6993 34.592 30.6013 34.4472 30.5486 34.284C30.4959 34.1209 30.4907 33.9461 30.5335 33.78C30.626 33.4484 30.802 33.1459 31.0447 32.9016C31.7497 32.1108 32.6655 31.5372 33.6847 31.248C34.0422 31.1276 34.4241 31.0979 34.7959 31.1616C34.9814 31.1948 35.1548 31.2764 35.2985 31.3982C35.4422 31.5201 35.5512 31.6777 35.6143 31.8552C35.6818 32.0386 35.6886 32.2388 35.6337 32.4263C35.5788 32.6138 35.4652 32.7788 35.3095 32.8969" fill="#3E4551"/>
<path d="M30.6703 34.248C30.6895 34.248 30.8287 33.9601 31.1503 33.5521C31.5698 33.017 32.1043 32.5833 32.7142 32.2829C33.3241 31.9825 33.9937 31.8233 34.6736 31.8169C35.1944 31.8169 35.516 31.8793 35.5208 31.8577C35.45 31.8254 35.3747 31.8044 35.2975 31.7952C35.0916 31.7565 34.883 31.7341 34.6736 31.728C33.975 31.7101 33.2825 31.8619 32.6555 32.1704C32.0284 32.4789 31.4856 32.9349 31.0736 33.4993C30.9484 33.6676 30.8384 33.8467 30.7447 34.0344C30.7081 34.1009 30.6829 34.1732 30.6703 34.248Z" fill="#A2A3A8"/>
<path d="M54.3944 59.28C54.3608 59.352 54.8216 59.6808 55.664 60.036C56.1576 60.2419 56.6663 60.4096 57.1856 60.5377C58.4636 60.8507 59.785 60.948 61.0952 60.8256C61.6276 60.7746 62.1554 60.684 62.6744 60.5544C63.56 60.3264 64.064 60.0744 64.04 59.9928C64.016 59.9112 63.4664 60.0096 62.6 60.12C62.1632 60.1776 61.64 60.2232 61.0616 60.2496C60.4351 60.2742 59.8078 60.2646 59.1824 60.2208C58.5569 60.1745 57.9344 60.0943 57.3175 59.9808C56.7487 59.868 56.24 59.7408 55.8152 59.6256C54.9608 59.376 54.4352 59.1912 54.3944 59.28Z" fill="#3E4551"/>
<path d="M54.7087 60.5977C54.6823 60.6769 55.1263 60.9193 55.8967 61.1737C57.9269 61.8132 60.0785 61.9693 62.1799 61.6297C62.9791 61.4905 63.4543 61.3129 63.4399 61.2337C63.4063 61.0513 61.4527 61.3297 59.0575 61.1473C56.6623 60.9649 54.7663 60.4225 54.7087 60.5977Z" fill="#3E4551"/>
<path d="M63.4015 25.2625C63.4015 25.2625 71.3215 26.7265 71.2207 33.8185C71.1199 40.9105 64.4143 39.7177 62.4655 39.4681C61.5823 39.3553 59.8255 39.1057 58.1623 38.8657C54.6415 38.3569 52.0135 36.6433 51.8047 33.0913C51.7784 32.6748 51.7929 32.2569 51.8479 31.8433C52.3399 28.0945 55.8415 23.5825 63.4015 25.2625Z" fill="#6869AC"/>
<path d="M54.8553 32.3736L64.9617 34.5168C65.4702 34.625 66.0009 34.5267 66.437 34.2436C66.8732 33.9605 67.179 33.5158 67.2873 33.0072C67.3947 32.4984 67.2958 31.9677 67.0123 31.5317C66.7288 31.0957 66.2839 30.79 65.7753 30.6816L55.6689 28.536C55.16 28.4286 54.6293 28.5275 54.1933 28.811C53.7573 29.0945 53.4516 29.5394 53.3433 30.048C53.2897 30.3 53.2864 30.5601 53.3334 30.8134C53.3805 31.0666 53.477 31.3082 53.6174 31.5241C53.7578 31.7401 53.9394 31.9263 54.1518 32.0721C54.3642 32.2178 54.6032 32.3203 54.8553 32.3736Z" fill="#3E4551"/>
<path d="M63.5961 33.0193C63.2488 33.0193 62.9673 32.7377 62.9673 32.3905C62.9673 32.0432 63.2488 31.7617 63.5961 31.7617C63.9433 31.7617 64.2249 32.0432 64.2249 32.3905C64.2249 32.7377 63.9433 33.0193 63.5961 33.0193Z" fill="white"/>
<path d="M56.5353 31.5169C56.188 31.5169 55.9065 31.2354 55.9065 30.8881C55.9065 30.5408 56.188 30.2593 56.5353 30.2593C56.8825 30.2593 57.1641 30.5408 57.1641 30.8881C57.1641 31.2354 56.8825 31.5169 56.5353 31.5169Z" fill="white"/>
<path d="M60.3151 29.0065C60.4422 28.7735 60.5553 28.5331 60.6535 28.2865C60.907 27.7081 61.2372 27.1665 61.6351 26.6761C62.0217 26.1797 62.5337 25.7953 63.1183 25.5625C63.3665 25.4816 63.6199 25.4175 63.8767 25.3705C63.8062 25.3566 63.7336 25.3566 63.6631 25.3705C63.4679 25.3854 63.2753 25.424 63.0895 25.4857C62.4763 25.7025 61.9382 26.0906 61.5391 26.6041C61.1354 27.1022 60.8115 27.6601 60.5791 28.2577C60.4879 28.4977 60.4207 28.6729 60.3775 28.8025C60.3467 28.867 60.3257 28.9358 60.3151 29.0065Z" fill="white"/>
<path d="M60.0607 39.1368C60.0775 39.1224 59.8495 38.8968 59.5807 38.4864C59.2188 37.9433 58.9812 37.3271 58.8846 36.6816C58.8066 36.0324 58.8123 35.3758 58.9014 34.728C58.9548 34.4594 58.9909 34.1877 59.0095 33.9144C58.9785 33.9818 58.956 34.0528 58.9423 34.1256C58.9087 34.2648 58.8631 34.464 58.8151 34.7136C58.6969 35.3687 58.6791 36.038 58.7623 36.6984C58.858 37.3628 59.1142 37.9938 59.5086 38.5368C59.6264 38.7 59.7572 38.8533 59.8999 38.9952C59.9466 39.0497 60.0007 39.0974 60.0607 39.1368Z" fill="white"/>
<g opacity="0.3">
<path d="M52.7047 36.0576C53.6347 35.4862 54.6957 35.163 55.7863 35.1192C56.8712 35.0796 57.9572 35.1544 59.0263 35.3424C61.5079 35.7168 64.0495 36.3024 66.0583 37.8048C66.6491 38.202 67.1191 38.7542 67.4167 39.4008C67.4167 39.4008 66.3511 39.84 64.2247 39.6984C62.0983 39.5568 57.7135 38.7936 57.7135 38.7936C57.7135 38.7936 55.4695 38.4144 54.2023 37.4664C52.9351 36.5184 52.7047 36.0576 52.7047 36.0576Z" fill="#101723"/>
</g>
<path d="M52.7287 29.8489C52.6845 29.9665 52.6547 30.0889 52.6399 30.2137C52.5859 30.5722 52.6188 30.9385 52.7359 31.2817C52.9303 31.8262 53.3101 32.285 53.8087 32.5777C54.3823 32.9329 55.1287 33.1249 55.9399 33.2977L61.6591 34.5601L63.3127 34.9201C63.8767 35.0353 64.4479 35.1865 65.0503 35.2633C65.6693 35.373 66.3072 35.2644 66.8551 34.9561C67.4035 34.606 67.8008 34.0631 67.9687 33.4345C68.1361 32.8054 68.058 32.1362 67.7503 31.5625C67.451 31.0094 66.9742 30.5732 66.3967 30.3241C66.1167 30.2178 65.8275 30.1374 65.5327 30.0841L64.6807 29.8849L63.0343 29.5009L59.9863 28.7809C59.0263 28.5769 58.1551 28.3009 57.3343 28.1425C56.9449 28.0619 56.5503 28.0081 56.1535 27.9817C55.7981 27.952 55.4405 27.964 55.0879 28.0177C54.5189 28.0986 53.9801 28.3242 53.5231 28.6729C53.24 28.8972 53.0125 29.1838 52.8583 29.5105C52.8168 29.5947 52.7823 29.6822 52.7551 29.7721C52.7437 29.8017 52.7349 29.8322 52.7287 29.8633C52.7287 29.8633 52.7695 29.7409 52.8799 29.5225C53.0415 29.2045 53.2719 28.9266 53.5543 28.7089C54.0079 28.3746 54.5389 28.1607 55.0975 28.0873C55.4449 28.0383 55.7969 28.0294 56.1463 28.0609C56.54 28.0908 56.9313 28.1469 57.3175 28.2289C58.1311 28.3969 58.9975 28.6729 59.9575 28.8817L63.0031 29.6017L64.6495 29.9929L65.5015 30.1921C65.7891 30.2458 66.0712 30.3262 66.3439 30.4321C66.8953 30.6719 67.3506 31.0892 67.6375 31.6177C67.931 32.1631 68.0057 32.7999 67.8463 33.3985C67.685 33.9935 67.3076 34.5069 66.7879 34.8385C66.2633 35.1311 65.6541 35.2345 65.0623 35.1313C64.4743 35.0545 63.9007 34.9057 63.3367 34.7905L61.6807 34.4353L55.9567 33.2089C55.2185 33.0957 54.5041 32.8614 53.8423 32.5153C53.3516 32.2358 52.9751 31.7922 52.7791 31.2625C52.6606 30.9264 52.6203 30.5677 52.6615 30.2137C52.6927 29.9737 52.7359 29.8513 52.7287 29.8489Z" fill="white"/>
<path d="M71.1104 34.9921C70.9991 34.8607 70.8689 34.7466 70.724 34.6537C70.0568 34.1613 69.3064 33.793 68.5087 33.5665C68.3471 33.5099 68.1782 33.4768 68.0071 33.4681C67.9951 33.5065 68.7536 33.7081 69.6104 34.1233C70.4672 34.5385 71.0864 35.0233 71.1104 34.9921Z" fill="white"/>
<path d="M62.8808 26.256C62.8662 26.2462 62.8493 26.2403 62.8318 26.239C62.8143 26.2378 62.7967 26.2411 62.7808 26.2487C62.765 26.2563 62.7514 26.2679 62.7414 26.2824C62.7314 26.2969 62.7254 26.3138 62.724 26.3313C62.7225 26.3488 62.7257 26.3664 62.7332 26.3824C62.7407 26.3983 62.7522 26.412 62.7666 26.4221C62.781 26.4322 62.7978 26.4384 62.8153 26.44C62.8328 26.4416 62.8504 26.4385 62.8664 26.4312C62.8817 26.4228 62.8946 26.4107 62.904 26.3961C62.9134 26.3815 62.9191 26.3648 62.9205 26.3475C62.922 26.3301 62.9191 26.3127 62.9122 26.2968C62.9052 26.2808 62.8945 26.2668 62.8808 26.256Z" fill="white"/>
<path d="M61.6256 28.0921C61.611 28.0822 61.5941 28.0764 61.5765 28.0751C61.559 28.0738 61.5414 28.0771 61.5256 28.0848C61.5097 28.0924 61.4961 28.104 61.4861 28.1185C61.4762 28.133 61.4702 28.1498 61.4687 28.1674C61.4673 28.1849 61.4705 28.2025 61.4779 28.2184C61.4854 28.2344 61.4969 28.2481 61.5113 28.2582C61.5257 28.2683 61.5425 28.2744 61.56 28.276C61.5775 28.2776 61.5952 28.2746 61.6112 28.2673C61.6259 28.2585 61.6384 28.2463 61.6475 28.2317C61.6566 28.2171 61.662 28.2005 61.6635 28.1834C61.6649 28.1662 61.6622 28.149 61.6556 28.1331C61.649 28.1173 61.6387 28.1032 61.6256 28.0921Z" fill="white"/>
<path d="M69.2263 33.2281C69.2115 33.2196 69.1949 33.215 69.178 33.2145C69.161 33.214 69.1441 33.2178 69.1289 33.2254C69.1137 33.233 69.1007 33.2442 69.0908 33.2581C69.081 33.2719 69.0748 33.288 69.0727 33.3049C69.0724 33.3217 69.0762 33.3383 69.0838 33.3533C69.0914 33.3682 69.1026 33.3811 69.1163 33.3908C69.13 33.4005 69.1459 33.4067 69.1626 33.4089C69.1792 33.4111 69.1962 33.4091 69.2119 33.4033C69.2267 33.3953 69.2393 33.3839 69.2488 33.3701C69.2583 33.3562 69.2644 33.3403 69.2665 33.3236C69.2686 33.307 69.2667 33.29 69.261 33.2743C69.2552 33.2585 69.2458 33.2443 69.2335 33.2329" fill="white"/>
<path d="M70.7959 34.0801C70.7812 34.0707 70.7644 34.0653 70.747 34.0644C70.7297 34.0635 70.7124 34.0671 70.6968 34.0748C70.6813 34.0825 70.668 34.0942 70.6582 34.1085C70.6485 34.1229 70.6426 34.1396 70.6412 34.1569C70.6398 34.1742 70.6429 34.1916 70.6502 34.2074C70.6575 34.2232 70.6688 34.2368 70.6829 34.2469C70.697 34.2571 70.7135 34.2634 70.7308 34.2653C70.748 34.2672 70.7655 34.2645 70.7815 34.2577C70.7963 34.2497 70.8089 34.2383 70.8184 34.2245C70.8279 34.2106 70.834 34.1947 70.8361 34.178C70.8382 34.1614 70.8363 34.1444 70.8306 34.1287C70.8248 34.1129 70.8154 34.0987 70.8031 34.0873" fill="white"/>
<g opacity="0.3">
<path d="M61.2607 25.3776C61.2415 25.4688 61.9543 25.6704 63.0799 26.0328C64.2055 26.3952 65.7511 26.9352 67.1863 27.9528C67.8518 28.437 68.4422 29.0169 68.9383 29.6736C69.3414 30.2116 69.6647 30.8049 69.8983 31.4352C70.2919 32.52 70.2415 33.2712 70.3495 33.2736C70.3879 33.2736 70.4455 33.0936 70.4743 32.7504C70.5007 32.2653 70.4488 31.7791 70.3207 31.3104C70.1307 30.6084 69.8214 29.9443 69.4063 29.3472C68.8996 28.6155 68.2723 27.9752 67.5511 27.4536C66.8329 26.9459 66.054 26.5299 65.2327 26.2152C64.5707 25.9607 63.8903 25.7569 63.1975 25.6056C62.0191 25.3488 61.2775 25.2984 61.2607 25.3776Z" fill="white"/>
</g>
<g opacity="0.3">
<path d="M68.9166 36.7681C69.0222 36.9025 69.4782 36.7153 69.8142 36.2449C70.1502 35.7745 70.1766 35.2849 70.0158 35.2249C69.855 35.1649 69.5862 35.4913 69.2958 35.8825C69.0054 36.2737 68.8086 36.6313 68.9166 36.7681Z" fill="white"/>
</g>
<path d="M52.496 40.62C52.016 40.7568 52.0448 47.7072 52.148 51.2544C52.2032 53.1552 52.3448 55.14 53.3144 56.7744C54.3944 58.596 56.4512 59.76 58.5656 59.8944C61.1072 60.0672 63.6224 58.836 65.3624 56.9712C67.1024 55.1064 68.1344 52.6728 68.6888 50.184C69.2432 47.6952 69.3512 45.144 69.4568 42.5832C69.4568 42.5928 61.22 38.16 52.496 40.62Z" fill="#6869AC"/>
<g opacity="0.2">
<path d="M69.0704 45.9529C69.128 48.1945 68.732 50.7793 68.0144 52.6489C67.2368 54.6745 66.1088 56.4889 64.2224 58.0249C63.6931 58.4207 63.1311 58.7708 62.5424 59.0713C62.0458 59.3276 61.5217 59.5265 60.98 59.6641C60.0848 59.9209 59.5592 58.8121 59.384 57.8977C59.2088 56.9833 59.5376 56.0257 60.104 55.2793C60.6915 54.5541 61.4044 53.9404 62.2088 53.4673C63.0117 52.9963 63.7874 52.4802 64.532 51.9217C65.754 50.876 66.7259 49.5695 67.376 48.0985C68.0228 46.6324 68.5595 45.1202 68.9816 43.5745" fill="#101723"/>
</g>
<path d="M63.1952 55.44C63.1802 55.4322 63.1636 55.4281 63.1466 55.4279C63.1297 55.4277 63.113 55.4316 63.0978 55.439C63.0826 55.4465 63.0694 55.4574 63.0592 55.4709C63.0491 55.4845 63.0422 55.5002 63.0392 55.5168C63.0394 55.5337 63.0435 55.5503 63.0514 55.5653C63.0593 55.5802 63.0707 55.593 63.0846 55.6027C63.0984 55.6123 63.1144 55.6185 63.1312 55.6207C63.1479 55.6229 63.1649 55.621 63.1808 55.6152C63.1956 55.6075 63.2082 55.5964 63.2178 55.5828C63.2273 55.5691 63.2334 55.5534 63.2355 55.5369C63.2376 55.5204 63.2357 55.5036 63.23 55.488C63.2242 55.4724 63.2147 55.4584 63.2024 55.4472" fill="white"/>
<path d="M60.1134 55.3129C60.0988 55.3035 60.082 55.2981 60.0646 55.2972C60.0472 55.2963 60.0299 55.2999 60.0144 55.3076C59.9988 55.3153 59.9855 55.3269 59.9758 55.3413C59.966 55.3557 59.9602 55.3724 59.9588 55.3897C59.9574 55.407 59.9605 55.4244 59.9678 55.4402C59.9751 55.456 59.9863 55.4696 60.0004 55.4797C60.0145 55.4899 60.031 55.4962 60.0483 55.4981C60.0656 55.4999 60.0831 55.4973 60.099 55.4905C60.114 55.4827 60.1269 55.4715 60.1366 55.4578C60.1463 55.444 60.1526 55.4281 60.155 55.4115C60.1573 55.3948 60.1556 55.3778 60.1501 55.3619C60.1445 55.346 60.1353 55.3316 60.123 55.3201" fill="white"/>
<path d="M56.7487 52.1352C56.7342 52.1268 56.7177 52.1221 56.7009 52.1215C56.6841 52.1209 56.6674 52.1244 56.6523 52.1318C56.6371 52.1391 56.624 52.15 56.614 52.1636C56.6041 52.1772 56.5976 52.193 56.5951 52.2096C56.5932 52.2272 56.5959 52.2449 56.603 52.2611C56.6101 52.2772 56.6213 52.2912 56.6355 52.3017C56.6497 52.3122 56.6664 52.3187 56.6839 52.3207C56.7014 52.3227 56.7192 52.3201 56.7354 52.3131C56.7516 52.3061 56.7656 52.2949 56.7762 52.2808C56.7867 52.2667 56.7934 52.25 56.7954 52.2325C56.7975 52.215 56.795 52.1972 56.788 52.181C56.7811 52.1648 56.77 52.1506 56.7559 52.14" fill="white"/>
<path d="M58.2943 44.28C58.2795 44.2722 58.263 44.268 58.2462 44.2678C58.2294 44.2676 58.2128 44.2715 58.1978 44.279C58.1828 44.2865 58.1698 44.2975 58.1599 44.311C58.1499 44.3245 58.1434 44.3403 58.1407 44.3568C58.1411 44.3735 58.1454 44.3898 58.1531 44.4045C58.1609 44.4192 58.1719 44.432 58.1854 44.4417C58.1988 44.4515 58.2144 44.458 58.2308 44.4608C58.2472 44.4635 58.264 44.4625 58.2799 44.4576C58.2949 44.4499 58.3078 44.4387 58.3175 44.4249C58.3272 44.4112 58.3335 44.3953 58.3359 44.3786C58.3382 44.362 58.3366 44.345 58.331 44.3291C58.3254 44.3132 58.3162 44.2988 58.3039 44.2872" fill="white"/>
<path d="M55.1407 45.5689C55.1261 45.5605 55.1097 45.5558 55.0928 45.5552C55.076 45.5546 55.0593 45.5581 55.0442 45.5654C55.029 45.5728 55.0159 45.5837 55.0059 45.5973C54.996 45.6108 54.9895 45.6266 54.9871 45.6433C54.9855 45.6607 54.9884 45.6782 54.9956 45.6941C55.0028 45.7099 55.014 45.7237 55.0281 45.734C55.0422 45.7443 55.0587 45.7507 55.076 45.7527C55.0934 45.7546 55.1109 45.7521 55.127 45.7452C55.143 45.7384 55.157 45.7275 55.1676 45.7136C55.1782 45.6997 55.185 45.6834 55.1873 45.6661C55.1897 45.6488 55.1875 45.6312 55.181 45.615C55.1745 45.5988 55.1639 45.5846 55.1503 45.5737" fill="white"/>
<path d="M66.6846 54.5256C66.6698 54.5178 66.6533 54.5136 66.6365 54.5134C66.6197 54.5132 66.6031 54.5171 66.5881 54.5246C66.5731 54.5321 66.5601 54.5431 66.5502 54.5566C66.5402 54.5701 66.5337 54.5859 66.531 54.6024C66.5313 54.6191 66.5355 54.6354 66.5432 54.65C66.551 54.6647 66.5621 54.6774 66.5757 54.687C66.5892 54.6966 66.6049 54.7028 66.6213 54.7052C66.6377 54.7076 66.6545 54.7061 66.6702 54.7008C66.6852 54.6934 66.6981 54.6824 66.7078 54.6689C66.7176 54.6553 66.7239 54.6397 66.7263 54.6231C66.7286 54.6066 66.7269 54.5898 66.7214 54.574C66.7158 54.5583 66.7065 54.5442 66.6942 54.5328" fill="white"/>
<path d="M67.1934 51.9121C67.1786 51.9042 67.1621 51.9 67.1453 51.8998C67.1285 51.8997 67.1119 51.9035 67.0969 51.911C67.0819 51.9185 67.0689 51.9295 67.0589 51.943C67.049 51.9566 67.0425 51.9723 67.0398 51.9889C67.0401 52.0055 67.0443 52.0218 67.052 52.0365C67.0598 52.0511 67.0709 52.0638 67.0845 52.0734C67.098 52.083 67.1137 52.0892 67.1301 52.0916C67.1465 52.094 67.1633 52.0925 67.179 52.0873C67.194 52.0798 67.2068 52.0688 67.2166 52.0553C67.2264 52.0418 67.2327 52.0261 67.235 52.0095C67.2374 51.993 67.2357 51.9762 67.2302 51.9605C67.2246 51.9447 67.2153 51.9306 67.203 51.9193" fill="white"/>
<path d="M67.4167 49.5457C67.4019 49.5378 67.3854 49.5336 67.3686 49.5335C67.3518 49.5333 67.3352 49.5371 67.3202 49.5446C67.3052 49.5521 67.2922 49.5631 67.2822 49.5766C67.2723 49.5902 67.2658 49.6059 67.2631 49.6225C67.2628 49.6393 67.2667 49.6559 67.2743 49.6709C67.2819 49.6858 67.293 49.6987 67.3067 49.7084C67.3205 49.7181 67.3363 49.7243 67.353 49.7265C67.3696 49.7287 67.3866 49.7267 67.4023 49.7209C67.4171 49.7129 67.4298 49.7015 67.4393 49.6877C67.4488 49.6738 67.4548 49.6579 67.4569 49.6412C67.459 49.6246 67.4571 49.6076 67.4514 49.5918C67.4457 49.5761 67.4362 49.5619 67.4239 49.5505" fill="white"/>
<path d="M67.64 47.0401C67.6251 47.0322 67.6086 47.028 67.5918 47.0278C67.575 47.0277 67.5584 47.0315 67.5434 47.039C67.5284 47.0465 67.5154 47.0575 67.5055 47.071C67.4956 47.0846 67.489 47.1003 67.4864 47.1169C67.4866 47.1335 67.4908 47.1498 67.4986 47.1645C67.5063 47.1791 67.5174 47.1918 67.531 47.2014C67.5446 47.211 67.5602 47.2172 67.5766 47.2196C67.5931 47.222 67.6098 47.2205 67.6256 47.2153C67.6405 47.2078 67.6534 47.1968 67.6631 47.1833C67.6729 47.1698 67.6792 47.1541 67.6816 47.1375C67.6839 47.121 67.6823 47.1042 67.6767 47.0885C67.6711 47.0727 67.6618 47.0586 67.6496 47.0473" fill="white"/>
<path d="M53.2687 44.9544C53.2541 44.9446 53.2372 44.9387 53.2197 44.9375C53.2021 44.9362 53.1845 44.9395 53.1687 44.9471C53.1528 44.9547 53.1392 44.9664 53.1293 44.9809C53.1193 44.9954 53.1133 45.0122 53.1118 45.0297C53.1104 45.0473 53.1136 45.0649 53.121 45.0808C53.1285 45.0967 53.14 45.1104 53.1544 45.1205C53.1688 45.1306 53.1856 45.1368 53.2031 45.1384C53.2207 45.14 53.2383 45.137 53.2543 45.1296C53.27 45.1217 53.2834 45.1098 53.2933 45.0952C53.3031 45.0805 53.309 45.0636 53.3104 45.0461C53.3119 45.0285 53.3088 45.0109 53.3015 44.9948C53.2942 44.9788 53.2829 44.9649 53.2687 44.9544Z" fill="white"/>
<path d="M56.2351 55.0777C56.2205 55.0693 56.2041 55.0646 56.1872 55.064C56.1704 55.0634 56.1537 55.0669 56.1386 55.0742C56.1234 55.0816 56.1103 55.0925 56.1004 55.1061C56.0904 55.1196 56.0839 55.1354 56.0815 55.1521C56.0795 55.1696 56.0823 55.1873 56.0894 55.2035C56.0964 55.2197 56.1076 55.2337 56.1218 55.2441C56.136 55.2546 56.1527 55.2612 56.1702 55.2632C56.1878 55.2652 56.2055 55.2625 56.2217 55.2555C56.2379 55.2485 56.252 55.2374 56.2625 55.2232C56.273 55.2091 56.2797 55.1924 56.2818 55.1749C56.2838 55.1574 56.2813 55.1396 56.2744 55.1234C56.2674 55.1072 56.2564 55.0931 56.2423 55.0825" fill="white"/>
<path d="M55.8967 57.5592C55.8821 57.5494 55.8652 57.5435 55.8477 57.5423C55.8301 57.541 55.8125 57.5443 55.7967 57.5519C55.7808 57.5595 55.7672 57.5712 55.7573 57.5857C55.7473 57.6002 55.7413 57.617 55.7399 57.6345C55.7384 57.6521 55.7416 57.6697 55.7491 57.6856C55.7565 57.7015 55.768 57.7152 55.7824 57.7253C55.7968 57.7354 55.8136 57.7416 55.8312 57.7432C55.8487 57.7448 55.8663 57.7418 55.8823 57.7344C55.8975 57.726 55.9104 57.714 55.9199 57.6994C55.9293 57.6847 55.935 57.668 55.9364 57.6507C55.9378 57.6334 55.935 57.6159 55.928 57.6C55.9211 57.584 55.9103 57.57 55.8967 57.5592Z" fill="white"/>
<g opacity="0.3">
<path d="M54.4064 42.4801C54.3824 42.5545 55.1264 42.8881 56.3984 43.2313C57.1435 43.4327 57.899 43.5929 58.6616 43.7113C60.5327 44.0023 62.432 44.0667 64.3184 43.9033C65.0868 43.8363 65.851 43.7289 66.608 43.5817C67.8992 43.3225 68.6648 43.0417 68.6456 42.9649C68.6072 42.7753 65.4488 43.5025 61.5032 43.3537C57.5576 43.2049 54.4592 42.3025 54.4064 42.4801Z" fill="white"/>
</g>
<path d="M63.4807 58.5601C63.4807 58.5601 63.5287 58.5289 63.6127 58.4593C63.6967 58.3897 63.8167 58.2793 63.9631 58.1329C64.3853 57.7183 64.7285 57.2304 64.9759 56.6929C65.1396 56.3214 65.2744 55.9379 65.3791 55.5457C65.5039 55.1305 65.6191 54.6817 65.7535 54.2089C66.0055 53.2609 66.2503 52.2145 66.4735 51.1057C66.8469 49.2071 67.1121 47.2888 67.2679 45.3601C67.3231 44.6233 67.3543 44.0257 67.3687 43.6105V43.1305C67.3729 43.0745 67.3729 43.0184 67.3687 42.9625C67.3555 43.0167 67.3483 43.0722 67.3471 43.1281C67.3471 43.2505 67.3255 43.4065 67.3111 43.6081C67.2823 44.0209 67.2367 44.6185 67.1695 45.3529C67.0279 46.8241 66.7807 48.8545 66.3391 51.0673C66.1183 52.1713 65.8783 53.2273 65.6191 54.1657C65.4967 54.6457 65.3791 55.0849 65.2567 55.5025C65.1578 55.8914 65.0303 56.2724 64.8751 56.6425C64.6405 57.1742 64.3157 57.6614 63.9151 58.0825C63.7759 58.2337 63.6607 58.3465 63.5839 58.4233C63.5464 58.4665 63.5119 58.5122 63.4807 58.5601Z" fill="white"/>
<path d="M57.8935 50.9041C57.8599 50.9041 57.6031 52.8097 57.3175 55.1713C57.0319 57.5329 56.8375 59.4504 56.8639 59.4552C56.8903 59.46 57.1567 57.5473 57.4423 55.1857C57.7279 52.8241 57.9295 50.9065 57.8935 50.9041Z" fill="white"/>
<path d="M61.5081 40.1304C61.4429 40.18 61.3848 40.2381 61.3353 40.3032C61.2321 40.4184 61.0953 40.5888 60.9033 40.8C60.5409 41.2248 60.0489 41.8176 59.5113 42.48L59.3121 42.72L59.2881 42.7488C59.2748 42.7585 59.2648 42.7718 59.2593 42.7872C59.2518 42.8044 59.2454 42.8221 59.2401 42.84V42.8808C59.2281 42.9336 59.2233 42.984 59.2161 43.0344C59.1969 43.236 59.1849 43.4304 59.1753 43.6152C59.1561 43.9824 59.1489 44.316 59.1417 44.5944C59.1345 44.8728 59.1417 45.0984 59.1417 45.2544C59.1358 45.3348 59.1415 45.4156 59.1585 45.4944C59.2032 45.1964 59.228 44.8957 59.2329 44.5944C59.2497 44.3064 59.2713 43.9776 59.2929 43.62C59.2929 43.4352 59.3193 43.2432 59.3409 43.0464C59.3409 42.9984 59.3529 42.948 59.3625 42.9024V42.8664V42.8472C59.3625 42.8472 59.3913 42.816 59.4033 42.7944L59.6025 42.5544C60.1401 41.8968 60.6225 41.2944 60.9657 40.8576C61.1385 40.6368 61.2753 40.4592 61.3689 40.332C61.4234 40.2708 61.4702 40.2031 61.5081 40.1304Z" fill="white"/>
<path d="M57.68 54.5257C57.7772 54.5581 57.8779 54.579 57.98 54.5881C58.1768 54.6217 58.46 54.6601 58.808 54.7033C59.5088 54.7921 60.488 54.8857 61.556 54.9433C62.624 55.0009 63.608 55.0009 64.3136 54.9865C64.664 54.9865 64.9496 54.9673 65.1464 54.9553C65.2496 54.9546 65.3524 54.9442 65.4536 54.9241C65.3522 54.9067 65.2492 54.9003 65.1464 54.9049H64.3112C63.608 54.9049 62.6312 54.8785 61.5608 54.8257C60.4904 54.7729 59.5184 54.6913 58.8176 54.6265L57.9872 54.5497C57.8858 54.5321 57.7829 54.524 57.68 54.5257Z" fill="white"/>
<path d="M52.1 45.2545C52.1 45.2545 52.1552 45.3049 52.2656 45.3721C52.421 45.4688 52.5812 45.5578 52.7456 45.6385C53.2904 45.9041 53.8573 46.1217 54.44 46.2889C55.0206 46.4607 55.6124 46.5923 56.2112 46.6825C56.4577 46.7316 56.7086 46.7557 56.96 46.7545C56.7196 46.6859 56.4751 46.633 56.228 46.5961C55.7744 46.5049 55.1504 46.3561 54.476 46.1713C53.8992 46.0021 53.3333 45.7977 52.7816 45.5593C52.376 45.3721 52.1216 45.2377 52.1 45.2545Z" fill="white"/>
<path d="M56.7067 50.1592C55.6083 49.0608 55.6083 47.2798 56.7067 46.1813C57.8052 45.0829 59.5862 45.0829 60.6846 46.1813C61.7831 47.2798 61.7831 49.0608 60.6846 50.1592C59.5862 51.2577 57.8052 51.2577 56.7067 50.1592Z" fill="#3E4551"/>
<path d="M57.9448 50.0804C56.8918 49.6652 56.3747 48.4749 56.7899 47.4218C57.2052 46.3688 58.3955 45.8517 59.4485 46.267C60.5016 46.6822 61.0186 47.8725 60.6034 48.9255C60.1881 49.9786 58.9979 50.4956 57.9448 50.0804Z" fill="white"/>
<path d="M57.6056 48.6121C57.6276 48.502 57.6421 48.3905 57.6488 48.2785C57.668 48.0673 57.6944 47.7649 57.7232 47.3977L57.6968 47.4361L58.7936 46.9009H58.7336L59.7512 47.5753C59.7776 47.6257 59.7176 47.5081 59.7248 47.5201V47.5945V47.6737V47.8321C59.7248 47.9377 59.7128 48.0409 59.708 48.1417C59.696 48.3457 59.6864 48.5425 59.6744 48.7321L59.708 48.6841L58.6232 49.2433H58.6688C58.3568 49.0441 58.1 48.8857 57.92 48.7753C57.8249 48.7143 57.7264 48.659 57.6248 48.6097C57.7011 48.6846 57.7856 48.7506 57.8768 48.8065C58.0472 48.9289 58.2992 49.1041 58.6184 49.3201L58.64 49.3345H58.664L59.7608 48.7993L59.7896 48.7849V48.7489C59.8016 48.5593 59.816 48.3625 59.828 48.1585C59.828 48.0577 59.84 47.9545 59.8472 47.8489V47.6905V47.6113V47.5201C59.8472 47.5321 59.792 47.4145 59.8184 47.4625L58.796 46.7953L58.7672 46.7761L58.7384 46.7929L57.6536 47.3521L57.6272 47.3641V47.3905C57.6104 47.7721 57.6008 48.0817 57.596 48.2929C57.5877 48.3993 57.5909 48.5063 57.6056 48.6121Z" fill="#6869AC"/>
<g opacity="0.2">
<path d="M69.4568 42.5929C69.4568 42.5929 61.2176 38.0929 52.496 40.6201C52.496 40.6201 56.228 44.1601 69.4568 42.5929Z" fill="#101723"/>
</g>
<path d="M56.18 97.9633C56.1656 97.9533 56.1488 97.9472 56.1313 97.9457C56.1138 97.9442 56.0962 97.9474 56.0802 97.9548C56.0643 97.9622 56.0506 97.9736 56.0404 97.988C56.0303 98.0023 56.0241 98.0191 56.0224 98.0365C56.0207 98.054 56.0236 98.0717 56.0309 98.0877C56.0381 98.1037 56.0494 98.1175 56.0636 98.1278C56.0779 98.1381 56.0945 98.1445 56.112 98.1464C56.1295 98.1483 56.1471 98.1455 56.1632 98.1385C56.1782 98.1307 56.1911 98.1195 56.2008 98.1057C56.2105 98.092 56.2168 98.0761 56.2192 98.0595C56.2215 98.0428 56.2199 98.0258 56.2143 98.0099C56.2087 97.994 56.1995 97.9797 56.1872 97.9681" fill="white"/>
<path d="M59.7583 67.1377C59.6071 72.9985 59.0095 78.8617 57.5167 84.5305C57.2623 85.5049 56.9599 86.5153 56.2615 87.2401C55.5631 87.9649 54.3415 88.2889 53.5351 87.6889C52.8415 87.1777 52.6855 86.2225 52.5895 85.3657C51.8438 79.0879 51.4296 72.7751 51.3487 66.4537C51.3487 66.4537 51.1639 61.6225 54.5719 61.6249C57.9799 61.6273 59.8495 63.5473 59.7583 67.1377Z" fill="#6869AC"/>
<g opacity="0.2">
<path d="M57.3799 62.16C56.9527 61.644 56.0935 61.68 55.5727 62.1C55.0519 62.52 54.8239 63.2065 54.7471 63.8713C54.5071 65.9737 55.5391 67.9896 55.9063 70.0729C56.2591 72.0792 55.9903 74.1385 56.0863 76.1713C56.1823 78.2041 56.6311 80.2824 58.2223 81.5497C58.2223 81.5497 59.7631 73.7137 59.5471 70.7209C59.3863 68.5297 57.3799 62.16 57.3799 62.16Z" fill="#101723"/>
</g>
<path d="M56.924 70.056C56.9085 70.1157 56.8988 70.1768 56.8952 70.2384L56.8376 70.764C56.7896 71.232 56.7224 71.8872 56.6408 72.684C56.4704 74.3136 56.2232 76.5624 55.904 79.0392C55.5848 81.516 55.256 83.7552 55.0064 85.3728C54.8816 86.172 54.7808 86.8248 54.7088 87.2928C54.6776 87.5088 54.6512 87.6816 54.632 87.8136C54.6198 87.8737 54.6134 87.9348 54.6128 87.996C54.6335 87.9385 54.6479 87.879 54.656 87.8184C54.6832 87.6888 54.7168 87.516 54.7568 87.3C54.8432 86.8488 54.9584 86.1984 55.0928 85.38C55.364 83.7648 55.7096 81.528 56.0288 79.0488C56.348 76.5696 56.5808 74.3184 56.7272 72.6864C56.8016 71.8704 56.8544 71.2104 56.8856 70.752C56.9 70.5328 56.912 70.3576 56.9216 70.2264C56.9269 70.1698 56.9277 70.1128 56.924 70.056Z" fill="white"/>
<path d="M61.9399 71.3761C60.3487 72.1537 58.0783 71.5225 56.9767 69.9145C55.8751 68.3065 55.5367 66.3145 55.2127 64.3945C55.1071 63.7489 55.0207 63.0169 55.4215 62.5009C55.8823 61.9105 56.7487 61.8817 57.4951 61.9057L64.6111 62.1457C64.6111 62.1457 67.2007 62.8873 67.2007 64.4497C67.2007 66.0121 64.1167 70.3201 61.9399 71.3761Z" fill="#3E4551"/>
<path d="M55.827 88.5601C56.5926 88.5961 57.2358 89.2105 57.5382 89.9161C57.8406 90.6217 57.8742 91.4089 57.9006 92.1745C58.0638 96.8401 58.227 101.515 57.9678 106.176C57.9126 107.186 57.8142 108.259 57.1974 109.056C56.5806 109.853 55.2558 110.191 54.5574 109.459C54.159 109.042 54.0774 108.422 54.015 107.849L52.2006 91.1641C52.1334 90.5353 52.0734 89.8561 52.395 89.3113C52.5647 89.0584 52.7896 88.8475 53.0528 88.6945C53.316 88.5415 53.6106 88.4504 53.9142 88.4281C54.5211 88.3866 55.1307 88.4393 55.7214 88.5841" fill="#6869AC"/>
<path d="M56.7679 110.508C56.7691 110.49 56.7691 110.471 56.7679 110.453L56.7895 110.287C56.8063 110.143 56.8326 109.93 56.859 109.654C56.9118 109.102 56.9719 108.3 57.0151 107.309C57.1111 105.324 57.0919 102.581 57.0007 99.5545C56.9095 96.5281 56.8207 93.7945 56.7607 91.8073C56.7625 91.0184 56.6261 90.2354 56.3574 89.4937C56.2755 89.2954 56.1742 89.1057 56.0551 88.9273L55.9542 88.7953C55.9326 88.7641 55.9182 88.7497 55.9182 88.7521C55.9248 88.77 55.9337 88.7869 55.9446 88.8025L56.0335 88.9417C56.1424 89.123 56.2355 89.3133 56.3118 89.5105C56.5612 90.251 56.683 91.0284 56.6718 91.8097C56.7246 93.8017 56.7966 96.5377 56.8758 99.5593C56.955 102.581 57.0006 105.319 56.9286 107.304C56.895 108.295 56.847 109.097 56.8086 109.649C56.7918 109.918 56.775 110.129 56.7654 110.285V110.453C56.7621 110.471 56.7629 110.49 56.7679 110.508Z" fill="white"/>
<path d="M57.5383 110.88C57.6237 110.405 57.6463 109.921 57.6055 109.44C57.5622 108.958 57.3302 108.512 56.9599 108.199C56.6474 107.999 56.2921 107.876 55.923 107.84C55.5538 107.804 55.1813 107.855 54.8359 107.99C54.5839 108.137 54.37 108.34 54.2115 108.584C54.0531 108.829 53.9545 109.107 53.9239 109.397L53.5663 111.137" fill="#3E4551"/>
<path d="M57.6798 110.798L53.5374 110.842C53.5374 110.842 50.4894 111.533 50.5542 111.778C50.619 112.022 57.8022 111.73 57.8022 111.73L57.6798 110.798Z" fill="#6869AC"/>
<path d="M58.7097 62.1265C58.6535 62.2466 58.607 62.371 58.5705 62.4985C58.5179 62.6454 58.4738 62.7953 58.4385 62.9473C58.382 63.1464 58.3355 63.3483 58.2992 63.5521C58.2474 63.7971 58.2081 64.0446 58.1817 64.2937C58.1433 64.5625 58.1312 64.8505 58.112 65.1553C58.0922 65.8149 58.1299 66.475 58.2248 67.1281C58.3269 67.7812 58.4875 68.4238 58.7048 69.0481C58.8176 69.3313 58.9161 69.6025 59.0409 69.8449C59.1009 69.9649 59.1537 70.0849 59.2137 70.1953L59.3913 70.5097C59.4935 70.6896 59.6048 70.8643 59.7249 71.0329C59.809 71.1647 59.902 71.2906 60.0033 71.4097C60.0802 71.5175 60.167 71.6179 60.2625 71.7097C60.1982 71.5941 60.1244 71.4841 60.0417 71.3809C59.948 71.2558 59.8606 71.126 59.7801 70.9921C59.6841 70.8385 59.5689 70.6681 59.4657 70.4641C59.4105 70.3633 59.3553 70.2577 59.2953 70.1497C59.2353 70.0417 59.1897 69.9097 59.1321 69.7969C59.0145 69.5569 58.9209 69.2857 58.8105 69.0073C58.5964 68.3894 58.4359 67.7542 58.3305 67.1089C58.2361 66.4629 58.1952 65.8103 58.2081 65.1577C58.2225 64.8577 58.2297 64.5721 58.2657 64.3057C58.3017 64.0393 58.328 63.7921 58.3664 63.5689C58.4048 63.3457 58.448 63.1417 58.4864 62.9641C58.5248 62.7865 58.5609 62.6353 58.5969 62.5129C58.6438 62.387 58.6815 62.2578 58.7097 62.1265Z" fill="#A2A3A8"/>
<path d="M55.46 76.0968C55.4453 76.089 55.429 76.0848 55.4124 76.0844C55.3957 76.0841 55.3792 76.0877 55.3643 76.095C55.3493 76.1022 55.3363 76.1129 55.3262 76.1262C55.3161 76.1394 55.3093 76.1549 55.3064 76.1712C55.3048 76.1886 55.3077 76.2061 55.3149 76.222C55.3221 76.2379 55.3333 76.2517 55.3474 76.2619C55.3615 76.2722 55.378 76.2786 55.3954 76.2806C55.4127 76.2826 55.4303 76.28 55.4463 76.2732C55.4624 76.2663 55.4764 76.2554 55.4869 76.2416C55.4975 76.2277 55.5043 76.2113 55.5067 76.194C55.509 76.1767 55.5068 76.1591 55.5003 76.1429C55.4938 76.1267 55.4832 76.1125 55.4696 76.1016" fill="white"/>
<path d="M54.8623 81.2305C54.8476 81.2211 54.8308 81.2157 54.8134 81.2148C54.7961 81.2139 54.7788 81.2175 54.7632 81.2252C54.7477 81.2329 54.7344 81.2445 54.7246 81.2589C54.7149 81.2733 54.709 81.29 54.7076 81.3073C54.7062 81.3246 54.7093 81.342 54.7166 81.3578C54.7239 81.3736 54.7352 81.3872 54.7493 81.3973C54.7634 81.4075 54.7799 81.4138 54.7972 81.4157C54.8144 81.4176 54.8319 81.4149 54.8479 81.4081C54.8627 81.4001 54.8753 81.3887 54.8848 81.3749C54.8943 81.361 54.9004 81.3451 54.9025 81.3284C54.9046 81.3118 54.9027 81.2948 54.897 81.2791C54.8912 81.2633 54.8818 81.2491 54.8695 81.2377" fill="white"/>
<path d="M56.0815 70.8576C56.0669 70.8478 56.05 70.8419 56.0325 70.8407C56.0149 70.8394 55.9974 70.8427 55.9815 70.8503C55.9657 70.8579 55.9521 70.8696 55.9421 70.8841C55.9321 70.8986 55.9261 70.9154 55.9247 70.9329C55.9232 70.9505 55.9264 70.9681 55.9339 70.984C55.9413 70.9999 55.9529 71.0136 55.9673 71.0237C55.9817 71.0338 55.9985 71.04 56.016 71.0416C56.0335 71.0432 56.0511 71.0402 56.0671 71.0328C56.0819 71.0249 56.0946 71.0135 56.1041 70.9996C56.1136 70.9858 56.1196 70.9698 56.1217 70.9532C56.1238 70.9365 56.1219 70.9196 56.1162 70.9038C56.1105 70.888 56.101 70.8738 56.0887 70.8624" fill="white"/>
<path d="M56.0815 93.0649C56.0668 93.0564 56.0502 93.0518 56.0332 93.0513C56.0162 93.0508 55.9994 93.0546 55.9842 93.0622C55.969 93.0698 55.9559 93.081 55.9461 93.0949C55.9363 93.1087 55.93 93.1248 55.9279 93.1417C55.9276 93.1585 55.9315 93.1751 55.9391 93.19C55.9467 93.205 55.9578 93.2179 55.9715 93.2276C55.9853 93.2373 56.0011 93.2435 56.0178 93.2457C56.0344 93.2479 56.0514 93.2459 56.0671 93.2401C56.0819 93.2321 56.0946 93.2207 56.1041 93.2068C56.1136 93.193 56.1196 93.1771 56.1217 93.1604C56.1238 93.1437 56.1219 93.1268 56.1162 93.111C56.1105 93.0953 56.101 93.0811 56.0887 93.0697" fill="white"/>
<path d="M53.8448 109.44C54.0126 109.533 54.1929 109.601 54.3801 109.642C54.8246 109.764 55.2807 109.839 55.7409 109.867C56.2009 109.896 56.6627 109.876 57.1185 109.807C57.3087 109.789 57.4954 109.744 57.6729 109.673C57.035 109.738 56.3937 109.761 55.7529 109.742C55.1111 109.682 54.4738 109.581 53.8448 109.44Z" fill="#A2A3A8"/>
<g opacity="0.2">
<path d="M58.0999 102.619C57.0031 101.818 56.2999 100.567 55.9087 99.2593C55.5175 97.9513 55.4118 96.5905 55.3062 95.2345C55.2006 93.8785 55.0903 92.5105 54.6895 91.2097C54.5744 90.9355 54.5306 90.6366 54.5623 90.3409C54.6607 89.8753 55.1359 89.6017 55.5703 89.4049C56.1079 89.1649 56.7847 88.9609 57.2503 89.3281C57.5983 89.6041 57.6751 90.0937 57.7183 90.5281C58.1359 94.6081 58.1023 98.7001 58.0687 102.79" fill="#101723"/>
</g>
<path d="M54.5455 90.7848C52.9178 90.7848 51.5983 89.4653 51.5983 87.8376C51.5983 86.2099 52.9178 84.8904 54.5455 84.8904C56.1732 84.8904 57.4927 86.2099 57.4927 87.8376C57.4927 89.4653 56.1732 90.7848 54.5455 90.7848Z" fill="#3E4551"/>
<path d="M51.7639 87.4128C51.805 87.4815 51.8569 87.5431 51.9175 87.5952C52.0735 87.7459 52.2476 87.8765 52.4359 87.984C53.0687 88.3291 53.785 88.4912 54.5047 88.452C55.2162 88.4072 55.918 88.2642 56.5903 88.0272C56.8471 87.9432 57.0535 87.8664 57.1951 87.8112C57.2707 87.788 57.3432 87.7558 57.4111 87.7152C57.1238 87.7717 56.8408 87.8479 56.5639 87.9432C55.8928 88.1483 55.2002 88.2748 54.4999 88.32C53.8014 88.3569 53.1052 88.2122 52.4791 87.9C52.2277 87.7576 51.9885 87.5947 51.7639 87.4128Z" fill="#A2A3A8"/>
<path d="M85.1455 40.2937C85.1455 40.2937 85.7239 37.9249 86.0335 37.8121C86.3431 37.6993 90.0559 38.2321 90.0559 38.2321C90.0559 38.2321 91.2559 36.5521 91.4479 36.3265C91.6399 36.1009 92.0359 36.6601 91.9063 36.9145C91.7767 37.1689 90.8911 39.6241 90.3415 39.7081C89.6961 39.746 89.0489 39.7371 88.4047 39.6817L87.9535 41.2273L85.1455 40.2937Z" fill="#6869AC"/>
<path d="M69.0967 49.4616C71.4391 50.316 72.9367 50.748 75.2815 51.6216C76.5822 52.1016 78.2383 52.6392 79.4647 52.9536C80.2831 53.1648 81.2215 53.2297 82.0135 52.8841C82.6878 52.5913 83.1823 52.0032 83.6263 51.4152C85.7071 48.6648 86.8662 45.1752 87.675 41.8152L84.8599 41.2849L79.7671 48.408L70.5103 45.2424L68.9839 49.0057C68.9515 49.0395 68.9283 49.081 68.9163 49.1263C68.9043 49.1716 68.9038 49.2191 68.9151 49.2646C68.9263 49.3101 68.9489 49.352 68.9806 49.3864C69.0123 49.4208 69.0523 49.4467 69.0967 49.4616Z" fill="#6869AC"/>
<path d="M69.0008 43.5145C69.5695 43.6886 70.0802 44.0137 70.4787 44.4551C70.8772 44.8965 71.1486 45.4377 71.2638 46.0211C71.3791 46.6046 71.334 47.2083 71.1332 47.7681C70.9325 48.3279 70.5837 48.8228 70.124 49.2001C69.74 49.5145 69.2 49.7569 68.7512 49.2769C68.612 49.1228 68.5116 48.9376 68.4584 48.7369C67.9592 46.9912 68.1535 45.1202 69.0008 43.5145Z" fill="#3E4551"/>
<path d="M70.4216 44.4145C70.4216 44.4145 70.4216 44.3929 70.388 44.3593C70.35 44.311 70.3056 44.2682 70.256 44.2321C70.2158 44.205 70.1698 44.1877 70.1216 44.1817C70.0655 44.1812 70.0099 44.1927 69.9584 44.2153C69.8975 44.2398 69.8444 44.2805 69.8048 44.3329L69.6848 44.4913C69.2439 45.0798 68.9405 45.7596 68.7968 46.4809C68.6451 47.2019 68.6657 47.9485 68.8568 48.6601C68.9186 48.8787 69.038 49.0768 69.2024 49.2337C69.261 49.2929 69.335 49.3345 69.416 49.3537C69.416 49.3537 69.3416 49.3057 69.236 49.1977C69.0934 49.0373 68.992 48.8445 68.9408 48.6361C68.7806 47.9363 68.7733 47.2102 68.9192 46.5073C69.0607 45.8023 69.3458 45.134 69.7568 44.5441C69.8384 44.4289 69.8936 44.3041 69.9968 44.2777C70.0333 44.2566 70.0747 44.2455 70.1168 44.2455C70.159 44.2455 70.2003 44.2566 70.2368 44.2777C70.3568 44.3521 70.4144 44.4241 70.4216 44.4145Z" fill="#A2A3A8"/>
<path d="M79.767 48.42C79.7415 48.4859 79.7277 48.5558 79.7262 48.6264C79.6993 48.8164 79.6904 49.0084 79.6998 49.2C79.7104 49.4857 79.7539 49.7692 79.8294 50.0448C80.0904 51.0038 80.6864 51.8374 81.5094 52.3944C81.6665 52.5046 81.8318 52.6025 82.0038 52.6872C82.0644 52.723 82.1299 52.7497 82.1982 52.7664C82.1982 52.7448 81.9414 52.6104 81.5622 52.3224C81.0674 51.9494 80.6514 51.482 80.3382 50.9472C80.1699 50.6525 80.0362 50.3392 79.9398 50.0136C79.8629 49.7464 79.8123 49.4723 79.7886 49.1952C79.7526 48.72 79.791 48.4224 79.767 48.42Z" fill="white"/>
<path d="M70.952 46.1208C70.94 46.152 72.9032 46.92 75.3368 47.8344C77.7704 48.7488 79.7528 49.4664 79.7648 49.4328C79.7768 49.3992 77.816 48.6336 75.38 47.7192C72.944 46.8048 70.964 46.08 70.952 46.1208Z" fill="white"/>
<path d="M86.7583 41.7601C86.7371 41.7944 86.721 41.8316 86.7103 41.8705L86.5903 42.1969C86.4895 42.4777 86.3503 42.8857 86.1463 43.3969C85.7623 44.3977 85.1863 45.7633 84.4543 47.2369C84.0871 47.9569 83.7151 48.6529 83.3623 49.2673C83.0095 49.8817 82.6711 50.4241 82.3735 50.8681C82.2271 51.0937 82.0903 51.2929 81.9679 51.4681C81.8455 51.6433 81.7423 51.7945 81.6511 51.9121L81.4495 52.1953C81.4063 52.2601 81.3823 52.2961 81.3871 52.2985C81.4175 52.272 81.4449 52.2422 81.4687 52.2097L81.6895 51.9433C81.7855 51.8281 81.8983 51.6817 82.0231 51.5089C82.1479 51.3361 82.2967 51.1417 82.4455 50.9185C82.7551 50.4793 83.0959 49.9345 83.4631 49.3273C83.8303 48.7201 84.1975 48.0265 84.5671 47.2945C85.1932 46.0418 85.7484 44.755 86.2303 43.4401C86.4151 42.9337 86.5495 42.5209 86.6359 42.2401C86.6743 42.1081 86.7079 42.0001 86.7343 41.9089C86.7509 41.861 86.759 41.8107 86.7583 41.7601Z" fill="white"/>
<path d="M77.9455 49.2864C77.9317 49.277 77.9203 49.2643 77.9125 49.2494C77.9047 49.2346 77.9006 49.218 77.9006 49.2012C77.9006 49.1845 77.9047 49.1679 77.9125 49.1531C77.9203 49.1382 77.9317 49.1255 77.9455 49.116C77.9609 49.1073 77.9782 49.1028 77.9959 49.1028C78.0135 49.1029 78.0308 49.1076 78.0461 49.1165C78.0613 49.1254 78.074 49.1381 78.0828 49.1534C78.0916 49.1687 78.0962 49.186 78.0962 49.2036C78.0962 49.2213 78.0916 49.2386 78.0828 49.2539C78.074 49.2692 78.0613 49.2819 78.0461 49.2908C78.0308 49.2997 78.0135 49.3044 77.9959 49.3044C77.9782 49.3045 77.9609 49.3 77.9455 49.2912" fill="white"/>
<path d="M81.86 50.4457C81.8449 50.4369 81.8322 50.4243 81.8234 50.4092C81.8146 50.394 81.8099 50.3769 81.8097 50.3593C81.8096 50.3418 81.814 50.3246 81.8225 50.3093C81.8311 50.294 81.8434 50.2812 81.8584 50.2721C81.8734 50.2631 81.8906 50.2581 81.9081 50.2577C81.9256 50.2572 81.9429 50.2614 81.9583 50.2697C81.9738 50.278 81.9868 50.2902 81.996 50.3051C82.0053 50.3199 82.0105 50.337 82.0112 50.3545C82.0112 50.3722 82.0066 50.3897 81.9979 50.4051C81.9891 50.4206 81.9765 50.4335 81.9613 50.4427C81.9461 50.4519 81.9288 50.457 81.9111 50.4575C81.8933 50.458 81.8757 50.4539 81.86 50.4457Z" fill="white"/>
<path d="M83.6479 47.6617C83.6328 47.6529 83.6203 47.6404 83.6115 47.6254C83.6027 47.6104 83.5979 47.5933 83.5977 47.5759C83.5974 47.5585 83.6017 47.5413 83.6101 47.5261C83.6184 47.5108 83.6306 47.498 83.6454 47.4888C83.6602 47.4796 83.6771 47.4744 83.6945 47.4738C83.7119 47.4731 83.7292 47.4769 83.7447 47.4849C83.7602 47.4929 83.7733 47.5048 83.7828 47.5193C83.7924 47.5339 83.798 47.5507 83.7991 47.5681C83.7988 47.5858 83.7941 47.6031 83.7853 47.6185C83.7766 47.6339 83.7641 47.6469 83.7491 47.6562C83.734 47.6655 83.7168 47.6709 83.6992 47.6719C83.6815 47.6728 83.6638 47.6693 83.6479 47.6617Z" fill="white"/>
<path d="M75.6464 48.48C75.6312 48.4713 75.6186 48.4587 75.6098 48.4435C75.601 48.4284 75.5962 48.4112 75.5961 48.3937C75.5959 48.3762 75.6003 48.3589 75.6089 48.3436C75.6174 48.3283 75.6298 48.3155 75.6448 48.3065C75.6598 48.2974 75.6769 48.2924 75.6944 48.292C75.712 48.2916 75.7293 48.2957 75.7447 48.3041C75.7601 48.3124 75.7731 48.3246 75.7824 48.3394C75.7917 48.3543 75.7969 48.3713 75.7976 48.3888C75.7969 48.4063 75.7919 48.4234 75.783 48.4385C75.7741 48.4536 75.7616 48.4662 75.7466 48.4753C75.7316 48.4843 75.7146 48.4895 75.6971 48.4903C75.6796 48.4911 75.6622 48.4876 75.6464 48.48Z" fill="white"/>
<path d="M73.0519 47.5872C73.0371 47.5794 73.0206 47.5752 73.0038 47.575C72.987 47.5748 72.9704 47.5787 72.9554 47.5862C72.9404 47.5937 72.9273 47.6047 72.9174 47.6182C72.9075 47.6317 72.9009 47.6475 72.8983 47.664C72.8987 47.6807 72.9029 47.697 72.9107 47.7117C72.9184 47.7264 72.9295 47.7392 72.9429 47.7489C72.9564 47.7587 72.972 47.7652 72.9884 47.7679C73.0048 47.7707 73.0216 47.7696 73.0375 47.7648C73.0525 47.7571 73.0653 47.7459 73.0751 47.7321C73.0848 47.7184 73.0911 47.7025 73.0935 47.6858C73.0958 47.6691 73.0941 47.6521 73.0886 47.6362C73.083 47.6204 73.0737 47.606 73.0615 47.5944" fill="white"/>
<path d="M87.7375 41.844C86.7756 41.7751 85.8198 41.6395 84.8767 41.4384C84.4999 41.3616 84.0631 41.2248 83.9455 40.8576C83.9109 40.7233 83.9151 40.5818 83.9575 40.4497C84 40.3176 84.079 40.2003 84.1855 40.1112C84.4072 39.941 84.6678 39.8289 84.9439 39.7848C85.7863 39.6104 86.661 39.6786 87.4663 39.9816C87.757 40.0764 88.0199 40.2412 88.2319 40.4616C88.3368 40.5732 88.4105 40.7105 88.4455 40.8597C88.4805 41.0089 88.4755 41.1646 88.4311 41.3112C88.3864 41.4636 88.2939 41.5977 88.1673 41.6936C88.0407 41.7895 87.8867 41.8422 87.7279 41.844" fill="#3E4551"/>
<path d="M84.0703 40.4928C84.0703 40.512 84.3103 40.3896 84.7255 40.2792C85.2553 40.1383 85.8097 40.1162 86.3491 40.2145C86.8885 40.3128 87.3995 40.5292 87.8455 40.848C88.1887 41.088 88.3663 41.292 88.3831 41.2752C88.3549 41.2184 88.3167 41.1672 88.2703 41.124C88.156 40.998 88.0316 40.8816 87.8983 40.776C87.4518 40.4249 86.9261 40.1884 86.3672 40.0872C85.8083 39.9859 85.2331 40.023 84.6919 40.1952C84.5264 40.2456 84.3658 40.3107 84.2119 40.3896C84.1596 40.4164 84.1118 40.4512 84.0703 40.4928Z" fill="#A2A3A8"/>
<path d="M64.58 88.32C65.3432 88.404 65.948 89.0544 66.2072 89.7744C66.4664 90.4944 66.4472 91.2864 66.4352 92.052C66.3224 96.72 66.2096 101.395 65.6768 106.034C65.5592 107.038 65.3984 108.103 64.736 108.866C64.0736 109.63 62.7296 109.884 62.0768 109.106C61.7048 108.665 61.6592 108.043 61.6304 107.467C61.3568 101.88 61.0824 96.292 60.8072 90.7032C60.776 90.072 60.7592 89.3904 61.112 88.8648C61.2951 88.6267 61.5291 88.4327 61.797 88.2969C62.0649 88.1611 62.3598 88.087 62.66 88.08C63.2684 88.0757 63.8738 88.1647 64.4552 88.344" fill="#6869AC"/>
<path d="M68.5447 67.2001C68.3959 73.0609 67.7959 78.9265 66.3055 84.5953C66.0487 85.5697 65.7463 86.5777 65.0479 87.3025C64.3495 88.0273 63.1279 88.3513 62.3215 87.7537C61.6303 87.2401 61.4719 86.2873 61.3783 85.4305C60.6319 79.1519 60.2169 72.8383 60.1351 66.5161C60.1351 66.5161 59.9527 61.6849 63.3583 61.6873C66.7639 61.6897 68.6359 63.6145 68.5447 67.2001Z" fill="#6869AC"/>
<g opacity="0.3">
<path d="M65.696 85.4401C65.78 85.452 66.0536 84.2161 66.416 82.2025C66.7784 80.1889 67.2512 77.4025 67.616 74.2969C67.8008 72.7441 67.9352 71.2584 68.0456 69.912C68.156 68.5656 68.2448 67.3249 68.1104 66.2809C68.0373 65.4476 67.7684 64.6433 67.3256 63.9337L67.0856 63.624C67.024 63.5508 66.9575 63.4818 66.8864 63.4176C66.776 63.312 66.7088 63.2665 66.6944 63.2809C66.68 63.2953 66.7112 63.3697 66.7904 63.4969C66.8264 63.5641 66.8816 63.6361 66.9344 63.7369C66.9872 63.8377 67.0448 63.9432 67.112 64.0632C67.4458 64.774 67.6343 65.5443 67.6664 66.3288C67.7384 67.3248 67.6184 68.5224 67.4672 69.864C67.316 71.2057 67.1744 72.6841 66.9872 74.2297C66.6248 77.3209 66.2288 80.1145 65.972 82.1497C65.7152 84.1849 65.6096 85.4256 65.696 85.4401Z" fill="white"/>
</g>
<path d="M63.8241 88.0081C63.8337 87.9865 63.841 87.964 63.8457 87.9409L63.8961 87.744L64.0761 86.9809C64.2249 86.3185 64.4241 85.3536 64.6449 84.1584C65.0769 81.7584 65.5281 78.4345 65.8449 74.7384C66.0081 72.8904 66.1377 71.1264 66.2505 69.5232C66.3081 68.724 66.3609 67.9609 66.4113 67.2481C66.4703 66.5858 66.4887 65.9206 66.4665 65.256C66.4454 64.7051 66.3411 64.1605 66.1569 63.6409C66.0177 63.2481 65.815 62.8808 65.5569 62.5537C65.3929 62.3477 65.2016 62.1652 64.9881 62.0113C64.912 61.957 64.8317 61.9088 64.7481 61.8672C65.0369 62.068 65.2941 62.3106 65.5113 62.5872C65.7592 62.9141 65.9528 63.2788 66.0849 63.6672C66.2581 64.1823 66.3543 64.7201 66.3705 65.2632C66.3874 65.924 66.3641 66.5853 66.3009 67.2432C66.2457 67.9632 66.1905 68.7168 66.1305 69.5184C66.0081 71.1192 65.8761 72.8784 65.7129 74.7288C65.3937 78.4224 64.9569 81.7512 64.5465 84.1464C64.3401 85.3464 64.1529 86.3065 64.0185 86.9737C63.9513 87.3001 63.8985 87.5568 63.8625 87.7392C63.8457 87.8232 63.8337 87.8881 63.8241 87.9409C63.8219 87.9632 63.8219 87.9857 63.8241 88.0081Z" fill="white"/>
<path d="M64.4863 108.828C64.5041 108.763 64.5153 108.696 64.5199 108.629C64.5391 108.485 64.5631 108.293 64.5919 108.053C64.6519 107.551 64.7311 106.826 64.8175 105.929C64.9951 104.134 65.1991 101.65 65.3479 98.9017C65.4967 96.1537 65.5639 93.6601 65.5879 91.8577C65.5879 90.9553 65.5999 90.2257 65.5879 89.7217C65.5879 89.4817 65.5879 89.2849 65.5879 89.1409C65.5946 89.0738 65.5946 89.0063 65.5879 88.9393C65.577 89.0059 65.5722 89.0734 65.5735 89.1409C65.5735 89.2849 65.5735 89.4769 65.5591 89.7217C65.5591 90.2377 65.5327 90.9625 65.5159 91.8553C65.4727 93.6577 65.3935 96.1465 65.2447 98.8945C65.0959 101.642 64.9063 104.124 64.7527 105.919C64.6735 106.81 64.6111 107.532 64.5655 108.048C64.5463 108.288 64.5295 108.482 64.5175 108.626C64.5033 108.693 64.4929 108.76 64.4863 108.828Z" fill="white"/>
<path d="M63.7447 90.8545C62.117 90.8545 60.7975 89.535 60.7975 87.9073C60.7975 86.2796 62.117 84.9601 63.7447 84.9601C65.3724 84.9601 66.6919 86.2796 66.6919 87.9073C66.6919 89.535 65.3724 90.8545 63.7447 90.8545Z" fill="#3E4551"/>
<path d="M65.4631 111.451C65.4631 110.971 65.4631 109.639 65.3239 109.178C65.2079 108.709 64.9135 108.302 64.5031 108.046C64.1663 107.879 63.79 107.81 63.4159 107.844C63.0461 107.849 62.6848 107.956 62.3719 108.154C62.1435 108.334 61.9612 108.567 61.8402 108.832C61.7192 109.097 61.6629 109.387 61.6759 109.678L61.5775 111.451" fill="#3E4551"/>
<path d="M65.3983 110.88L61.2535 110.842C61.2535 110.842 58.1935 111.47 58.2535 111.718C58.3135 111.965 65.5015 111.811 65.5015 111.811L65.3983 110.88Z" fill="#6869AC"/>
<path d="M65.2832 72.0841C65.2686 72.0762 65.2522 72.072 65.2356 72.0717C65.219 72.0714 65.2025 72.075 65.1875 72.0822C65.1725 72.0895 65.1595 72.1002 65.1494 72.1134C65.1394 72.1267 65.1326 72.1421 65.1296 72.1585C65.128 72.1758 65.131 72.1933 65.1382 72.2092C65.1454 72.2251 65.1566 72.2389 65.1707 72.2492C65.1848 72.2594 65.2013 72.2659 65.2186 72.2679C65.236 72.2698 65.2535 72.2673 65.2696 72.2604C65.2856 72.2536 65.2996 72.2427 65.3102 72.2288C65.3208 72.2149 65.3275 72.1985 65.3299 72.1813C65.3322 72.164 65.3301 72.1464 65.3236 72.1302C65.3171 72.114 65.3065 72.0997 65.2928 72.0889" fill="white"/>
<path d="M65.5832 67.656C65.5686 67.6462 65.5517 67.6403 65.5342 67.6391C65.5167 67.6378 65.4991 67.6411 65.4832 67.6487C65.4674 67.6563 65.4538 67.668 65.4438 67.6825C65.4338 67.697 65.4278 67.7138 65.4264 67.7313C65.4249 67.7489 65.4281 67.7665 65.4356 67.7824C65.4431 67.7983 65.4546 67.812 65.469 67.8221C65.4834 67.8322 65.5002 67.8384 65.5177 67.84C65.5352 67.8416 65.5528 67.8386 65.5688 67.8312C65.584 67.8228 65.5969 67.8108 65.6064 67.7962C65.6158 67.7815 65.6215 67.7648 65.6229 67.7475C65.6244 67.7302 65.6215 67.7127 65.6146 67.6968C65.6076 67.6808 65.5969 67.6668 65.5832 67.656Z" fill="white"/>
<path d="M64.9135 77.52C64.8986 77.5122 64.8821 77.508 64.8653 77.5078C64.8486 77.5076 64.832 77.5115 64.8169 77.519C64.8019 77.5265 64.7889 77.5374 64.779 77.551C64.7691 77.5645 64.7625 77.5802 64.7599 77.5968C64.7603 77.6135 64.7645 77.6298 64.7723 77.6445C64.78 77.6592 64.791 77.672 64.8045 77.6817C64.818 77.6915 64.8335 77.698 64.8499 77.7007C64.8663 77.7035 64.8832 77.7024 64.8991 77.6976C64.914 77.6899 64.9269 77.6787 64.9366 77.6649C64.9464 77.6512 64.9527 77.6353 64.955 77.6186C64.9574 77.6019 64.9557 77.5849 64.9501 77.569C64.9446 77.5532 64.9353 77.5388 64.9231 77.5272" fill="white"/>
<path d="M64.1647 83.6304C64.1499 83.6226 64.1334 83.6184 64.1166 83.6182C64.0998 83.618 64.0832 83.6219 64.0682 83.6294C64.0531 83.6369 64.0401 83.6479 64.0302 83.6614C64.0203 83.675 64.0137 83.6907 64.0111 83.7072C64.0115 83.7239 64.0157 83.7402 64.0235 83.7549C64.0312 83.7696 64.0423 83.7824 64.0557 83.7921C64.0692 83.8019 64.0847 83.8084 64.1011 83.8112C64.1176 83.8139 64.1344 83.8129 64.1503 83.808C64.1653 83.8003 64.1781 83.7891 64.1879 83.7753C64.1976 83.7616 64.2039 83.7457 64.2062 83.729C64.2086 83.7124 64.2069 83.6954 64.2014 83.6795C64.1958 83.6636 64.1865 83.6492 64.1743 83.6376" fill="white"/>
<path d="M65.0118 92.9568C64.9972 92.9475 64.9803 92.9421 64.963 92.9412C64.9456 92.9403 64.9283 92.9438 64.9128 92.9516C64.8972 92.9593 64.8839 92.9709 64.8742 92.9853C64.8644 92.9997 64.8586 93.0164 64.8571 93.0337C64.8557 93.051 64.8588 93.0684 64.8661 93.0842C64.8734 93.0999 64.8847 93.1136 64.8988 93.1237C64.9129 93.1338 64.9294 93.1402 64.9467 93.142C64.964 93.1439 64.9815 93.1413 64.9974 93.1344C65.0131 93.1262 65.0265 93.114 65.0363 93.0992C65.0461 93.0844 65.0519 93.0673 65.0534 93.0496C65.0548 93.0319 65.0517 93.0141 65.0445 92.9979C65.0372 92.9817 65.026 92.9676 65.0118 92.9568Z" fill="white"/>
<path d="M64.5438 97.7737C64.5293 97.7638 64.5124 97.758 64.4948 97.7567C64.4773 97.7554 64.4597 97.7587 64.4438 97.7663C64.428 97.774 64.4144 97.7856 64.4044 97.8001C64.3944 97.8146 64.3884 97.8314 64.387 97.849C64.3856 97.8665 64.3887 97.8841 64.3962 97.9C64.4037 97.9159 64.4152 97.9296 64.4296 97.9397C64.444 97.9498 64.4608 97.956 64.4783 97.9576C64.4958 97.9592 64.5134 97.9562 64.5294 97.9489C64.5452 97.9409 64.5586 97.929 64.5684 97.9144C64.5782 97.8997 64.5841 97.8828 64.5856 97.8653C64.587 97.8477 64.584 97.8301 64.5766 97.814C64.5693 97.798 64.558 97.7841 64.5438 97.7737Z" fill="white"/>
<path d="M64.4864 103.171C64.4718 103.162 64.455 103.157 64.4376 103.156C64.4202 103.155 64.4029 103.158 64.3874 103.166C64.3718 103.174 64.3585 103.185 64.3488 103.2C64.339 103.214 64.3332 103.231 64.3318 103.248C64.3304 103.265 64.3335 103.283 64.3408 103.299C64.3481 103.314 64.3593 103.328 64.3734 103.338C64.3875 103.348 64.404 103.355 64.4213 103.356C64.4386 103.358 64.4561 103.356 64.472 103.349C64.4877 103.341 64.5011 103.328 64.5109 103.314C64.5207 103.299 64.5265 103.282 64.528 103.264C64.5294 103.246 64.5264 103.229 64.5191 103.212C64.5118 103.196 64.5006 103.182 64.4864 103.171Z" fill="white"/>
<path d="M60.8553 87.3216C60.8553 87.3216 60.9081 87.3936 61.0257 87.4992C61.1942 87.6459 61.3757 87.7768 61.5681 87.8904C62.2067 88.2749 62.9344 88.4866 63.6796 88.5047C64.4248 88.5228 65.1619 88.3467 65.8185 87.9936C66.0158 87.8875 66.2037 87.7646 66.3801 87.6264C66.4485 87.5803 66.5093 87.5236 66.5601 87.4584C66.5457 87.4392 66.2793 87.6672 65.7777 87.9144C65.1278 88.2374 64.409 88.3972 63.6835 88.38C62.958 88.3629 62.2476 88.1693 61.6137 87.816C61.1241 87.5448 60.8697 87.3048 60.8553 87.3216Z" fill="#A2A3A8"/>
<path d="M61.6999 109.603C61.8624 109.696 62.038 109.763 62.2207 109.802C62.6545 109.923 63.1005 109.995 63.5503 110.016C64.0009 110.037 64.4525 110.008 64.8967 109.93C65.0822 109.907 65.2633 109.856 65.4343 109.781C64.8122 109.863 64.185 109.9 63.5575 109.891C62.9322 109.84 62.3114 109.744 61.6999 109.603Z" fill="#A2A3A8"/>
<path d="M58.6279 31.4064C58.5656 31.5786 58.5656 31.7671 58.6279 31.9392C58.6818 32.1309 58.7805 32.3069 58.9159 32.4528C59.0338 32.5796 59.177 32.6802 59.3363 32.748C59.4955 32.8159 59.6673 32.8496 59.8403 32.8469C60.0134 32.8442 60.184 32.8051 60.3411 32.7323C60.4981 32.6594 60.6381 32.5544 60.7519 32.424C60.885 32.2966 60.9699 32.127 60.9919 31.944C60.9059 32.0934 60.8046 32.2333 60.6895 32.3616C60.5606 32.4918 60.4039 32.591 60.2311 32.652C60.0204 32.7252 59.7931 32.7368 59.5759 32.6856C59.3586 32.6378 59.1596 32.5287 59.0023 32.3712C58.8745 32.24 58.7763 32.0829 58.7143 31.9104C58.6681 31.7459 58.6392 31.577 58.6279 31.4064Z" fill="white"/>
<path d="M90.1112 98.3256C89.7593 98.3838 89.4229 98.5127 89.1222 98.7045C88.8215 98.8963 88.5627 99.1471 88.3616 99.4416C87.9622 100.035 87.7037 100.711 87.6056 101.419C87.3776 102.775 87.7448 104.318 88.2488 105.598C89.6336 104.95 90.3704 103.337 90.6944 102.494C91.2032 101.165 91.3184 98.4504 90.1112 98.3256Z" fill="#A2A3A8"/>
<path d="M86.209 107.52C86.4176 107.18 86.5324 106.792 86.5416 106.393C86.5509 105.995 86.4544 105.601 86.2618 105.252C86.0643 104.906 85.7997 104.603 85.4837 104.36C85.1676 104.117 84.8064 103.94 84.421 103.838C84.2488 103.773 84.0646 103.747 83.881 103.76C83.6974 103.773 83.5189 103.826 83.3578 103.915C83.2227 104.022 83.1189 104.163 83.0573 104.324C82.9956 104.485 82.9784 104.66 83.0074 104.83C83.0675 105.17 83.2175 105.488 83.4418 105.751C84.1618 106.682 85.033 107.45 86.209 107.52Z" fill="#A2A3A8"/>
<path d="M86.5592 111.809C86.5869 111.716 86.6022 111.62 86.6048 111.523C86.624 111.338 86.648 111.072 86.6648 110.738C86.7295 109.871 86.6771 108.998 86.5088 108.144C86.3316 107.282 85.9235 106.484 85.328 105.835C85.1467 105.641 84.941 105.472 84.716 105.331C84.6374 105.274 84.5498 105.23 84.4568 105.202C84.7389 105.416 85.0038 105.652 85.2488 105.907C85.8021 106.56 86.1833 107.34 86.3576 108.178C86.5209 109.02 86.5877 109.878 86.5568 110.736C86.5354 111.093 86.5362 111.452 86.5592 111.809Z" fill="#3E4551"/>
<path d="M89.78 100.385C89.7075 100.527 89.6488 100.676 89.6048 100.829C89.5016 101.117 89.3648 101.537 89.1896 102.058C88.8488 103.102 88.4024 104.549 87.9488 106.159C87.4952 107.77 87.1184 109.241 86.8664 110.306C86.7392 110.839 86.6408 111.266 86.5784 111.574C86.5366 111.731 86.5084 111.891 86.4944 112.054C86.555 111.906 86.6024 111.754 86.636 111.598L86.972 110.342C87.2528 109.284 87.644 107.82 88.0952 106.212C88.5464 104.604 88.9784 103.15 89.2952 102.101C89.4464 101.594 89.5688 101.174 89.6648 100.855C89.7152 100.702 89.7537 100.544 89.78 100.385Z" fill="#3E4551"/>
<path d="M88.0521 108.799C88.398 108.033 88.9213 107.361 89.5785 106.837C90.2358 106.313 91.0083 105.953 91.8321 105.787C92.2521 105.708 92.7681 105.72 93.0009 106.078C93.2337 106.435 93.0345 106.915 92.7849 107.261C92.2468 107.973 91.51 108.51 90.6675 108.804C89.8249 109.098 88.9141 109.137 88.0497 108.914" fill="#A2A3A8"/>
<path d="M91.3737 106.994C91.2808 106.989 91.1876 106.999 91.0977 107.023C90.9898 107.037 90.8831 107.06 90.7785 107.09C90.6388 107.124 90.501 107.165 90.3657 107.213C90.0113 107.338 89.6704 107.499 89.3481 107.693C88.955 107.932 88.5889 108.213 88.2561 108.53C87.9277 108.853 87.6355 109.21 87.3849 109.596C87.1815 109.911 87.011 110.247 86.8761 110.597C86.8237 110.73 86.7781 110.867 86.7393 111.005C86.7062 111.108 86.6806 111.214 86.6625 111.322C86.6377 111.411 86.6248 111.503 86.6241 111.595C86.6529 111.595 86.7297 111.216 86.9769 110.635C87.1242 110.301 87.3001 109.98 87.5025 109.675C87.7545 109.304 88.0423 108.958 88.3617 108.643C88.6867 108.333 89.0421 108.057 89.4225 107.818C89.7338 107.623 90.0624 107.457 90.4041 107.323C90.9801 107.086 91.3785 107.023 91.3737 106.994Z" fill="#3E4551"/>
<path d="M18.8288 16.5792C19.652 13.704 22.7768 11.04 25.7672 11.04C28.2704 10.3008 31.6448 11.6784 32.984 13.1616C34.7432 15.1104 35.864 17.808 35.144 20.3328C34.424 22.8576 32.4056 24.9432 29.9528 25.8816C27.1592 26.952 23.7992 26.5128 21.4736 24.6312C19.148 22.7496 18.0032 19.4544 18.8288 16.5792Z" fill="#6869AC"/>
<path opacity="0.8" d="M18.8288 16.5792C19.652 13.704 22.7768 11.04 25.7672 11.04C28.2704 10.3008 31.6448 11.6784 32.984 13.1616C34.7432 15.1104 35.864 17.808 35.144 20.3328C34.424 22.8576 32.4056 24.9432 29.9528 25.8816C27.1592 26.952 23.7992 26.5128 21.4736 24.6312C19.148 22.7496 18.0032 19.4544 18.8288 16.5792Z" fill="white"/>
<path d="M23.1272 20.8537C23.1302 20.8266 23.1302 20.7992 23.1272 20.7721C23.1272 20.7121 23.1272 20.6353 23.1272 20.5321C23.1272 20.3209 23.1272 20.0257 23.1392 19.6489C23.1392 18.8761 23.1536 17.7769 23.1632 16.4233L23.1392 16.4641L26.9792 14.2633H26.9192L30.7472 16.4761C30.776 16.5265 30.7112 16.4113 30.7184 16.4233V18.7201C30.7184 19.4593 30.7184 20.1769 30.7184 20.8657L30.7472 20.8153L26.924 23.0377H26.9696L24.1664 21.4441L23.3936 21.0121L23.1896 20.9017L23.1152 20.8657C23.1341 20.8826 23.155 20.8972 23.1776 20.9089L23.372 21.0265L24.1256 21.4753L26.924 23.1169L26.9456 23.1313L26.9696 23.1169L30.8096 20.9161L30.8384 20.8993V20.8657C30.8384 20.1769 30.8384 19.4593 30.8384 18.7201C30.8384 18.3505 30.8384 17.9761 30.8384 17.5945V16.4353C30.8384 16.4473 30.7784 16.3321 30.8048 16.3801L26.9648 14.1721L26.9336 14.1553L26.9048 14.1721L23.0816 16.3945L23.0576 16.4089V16.4353C23.0576 17.7961 23.0744 18.9025 23.0792 19.6801C23.0792 20.0545 23.0792 20.3473 23.0912 20.5585C23.0912 20.6497 23.0912 20.7265 23.0912 20.7841C23.0912 20.8417 23.1272 20.8561 23.1272 20.8537Z" fill="#6869AC"/>
<path d="M23.1272 16.4304C23.2184 16.5031 23.3156 16.5682 23.4176 16.6248L24.2288 17.1048C24.9152 17.5152 25.8704 18.0648 26.9264 18.684H26.996H27.008L27.032 18.6696L27.0824 18.6408L27.1808 18.5856L27.38 18.48L27.7616 18.24L28.4816 17.8224L29.6816 17.1024L30.4928 16.6224C30.5953 16.5665 30.6925 16.5015 30.7832 16.428C30.6738 16.4692 30.5685 16.5206 30.4688 16.5816L29.6384 17.0376L28.4144 17.7288L27.6944 18.1416L27.3152 18.36L27.1208 18.4728L27.0224 18.528L26.972 18.5568L26.948 18.5712H26.936H26.9912C25.94 17.976 24.98 17.4312 24.26 17.04L23.4296 16.584C23.3337 16.5237 23.2325 16.4722 23.1272 16.4304Z" fill="#6869AC"/>
<path d="M26.9528 23.0112C27.0146 22.2769 27.0355 21.5398 27.0152 20.8032C27.0355 20.0666 27.0146 19.3295 26.9528 18.5952C26.8896 19.3294 26.8688 20.0666 26.8904 20.8032C26.8688 21.5398 26.8896 22.277 26.9528 23.0112Z" fill="#6869AC"/>
<path fill-rule="evenodd" clip-rule="evenodd" d="M81.3513 57.6864C81.1946 57.3806 80.9977 57.0973 80.7657 56.844L81.0921 55.9512L79.7697 55.0992L79.0905 55.7664C78.7634 55.66 78.4236 55.5978 78.0801 55.5816L77.6793 54.72L76.1433 55.0536V56.0136C75.8371 56.1695 75.5537 56.3665 75.3009 56.5992L74.4057 56.2728L73.5561 57.5952L74.2209 58.2744C74.1153 58.6007 74.054 58.9397 74.0385 59.2824L73.1769 59.6856L73.5105 61.2216H74.4705C74.6264 61.5272 74.8225 61.8105 75.0537 62.064L74.7297 62.9568L76.0521 63.8088L76.7313 63.144C77.0578 63.2487 77.3967 63.31 77.7393 63.3264L78.1401 64.188L79.6785 63.8544V62.8944C79.9837 62.7378 80.2669 62.5417 80.5209 62.3112L81.4041 62.64L82.2561 61.3176L81.5889 60.6384C81.6955 60.3122 81.7576 59.9731 81.7737 59.6304L82.6353 59.2296L82.3017 57.6912H81.3417L81.3513 57.6864ZM79.5345 59.028C79.6029 59.3524 79.5738 59.6899 79.4508 59.9978C79.3279 60.3057 79.1165 60.5704 78.8434 60.7585C78.5703 60.9465 78.2477 61.0495 77.9161 61.0546C77.5846 61.0596 77.259 60.9664 76.9803 60.7867C76.7016 60.6071 76.4823 60.3489 76.3501 60.0449C76.2178 59.7408 76.1785 59.4044 76.2371 59.078C76.2956 58.7517 76.4495 58.4499 76.6792 58.2108C76.9089 57.9717 77.2043 57.8059 77.5281 57.7344C77.7456 57.6866 77.9705 57.6826 78.1897 57.7226C78.4088 57.7625 78.6178 57.8457 78.8046 57.9672C78.9913 58.0887 79.1519 58.2461 79.2773 58.4303C79.4026 58.6144 79.49 58.8217 79.5345 59.04V59.028Z" fill="#6869AC"/>
<path opacity="0.5" fill-rule="evenodd" clip-rule="evenodd" d="M81.3513 57.6864C81.1946 57.3806 80.9977 57.0973 80.7657 56.844L81.0921 55.9512L79.7697 55.0992L79.0905 55.7664C78.7634 55.66 78.4236 55.5978 78.0801 55.5816L77.6793 54.72L76.1433 55.0536V56.0136C75.8371 56.1695 75.5537 56.3665 75.3009 56.5992L74.4057 56.2728L73.5561 57.5952L74.2209 58.2744C74.1153 58.6007 74.054 58.9397 74.0385 59.2824L73.1769 59.6856L73.5105 61.2216H74.4705C74.6264 61.5272 74.8225 61.8105 75.0537 62.064L74.7297 62.9568L76.0521 63.8088L76.7313 63.144C77.0578 63.2487 77.3967 63.31 77.7393 63.3264L78.1401 64.188L79.6785 63.8544V62.8944C79.9837 62.7378 80.2669 62.5417 80.5209 62.3112L81.4041 62.64L82.2561 61.3176L81.5889 60.6384C81.6955 60.3122 81.7576 59.9731 81.7737 59.6304L82.6353 59.2296L82.3017 57.6912H81.3417L81.3513 57.6864ZM79.5345 59.028C79.6029 59.3524 79.5738 59.6899 79.4508 59.9978C79.3279 60.3057 79.1165 60.5704 78.8434 60.7585C78.5703 60.9465 78.2477 61.0495 77.9161 61.0546C77.5846 61.0596 77.259 60.9664 76.9803 60.7867C76.7016 60.6071 76.4823 60.3489 76.3501 60.0449C76.2178 59.7408 76.1785 59.4044 76.2371 59.078C76.2956 58.7517 76.4495 58.4499 76.6792 58.2108C76.9089 57.9717 77.2043 57.8059 77.5281 57.7344C77.7456 57.6866 77.9705 57.6826 78.1897 57.7226C78.4088 57.7625 78.6178 57.8457 78.8046 57.9672C78.9913 58.0887 79.1519 58.2461 79.2773 58.4303C79.4026 58.6144 79.49 58.8217 79.5345 59.04V59.028Z" fill="white"/>
<path d="M89.7296 60.204C89.7296 60.204 89.7296 60.1776 89.7296 60.1272C89.7167 60.0523 89.6932 59.9795 89.66 59.9112C89.5447 59.6507 89.3405 59.4397 89.084 59.316C88.8925 59.2227 88.6806 59.1793 88.4679 59.1898C88.2552 59.2003 88.0485 59.2643 87.8672 59.376C87.6423 59.5133 87.4657 59.7171 87.3616 59.9592C87.2576 60.2012 87.2313 60.4696 87.2864 60.7273C87.3414 60.985 87.4751 61.2192 87.669 61.3976C87.8629 61.576 88.1074 61.6897 88.3688 61.7232C88.5793 61.7514 88.7936 61.7259 88.9916 61.6491C89.1897 61.5724 89.3651 61.4467 89.5016 61.284C89.6829 61.0646 89.7814 60.7886 89.78 60.504C89.7807 60.4289 89.7727 60.354 89.756 60.2808C89.744 60.2304 89.7344 60.204 89.7296 60.204C89.7248 60.204 89.744 60.3144 89.7296 60.504C89.71 60.771 89.6028 61.0241 89.4248 61.224C89.2816 61.3865 89.0961 61.5061 88.889 61.5695C88.6819 61.633 88.4612 61.6377 88.2516 61.5832C88.0419 61.5288 87.8515 61.4172 87.7014 61.261C87.5514 61.1048 87.4476 60.9101 87.4016 60.6984C87.3575 60.4863 87.3731 60.2662 87.4466 60.0624C87.5201 59.8587 87.6487 59.6793 87.8181 59.5443C87.9875 59.4092 88.191 59.3238 88.406 59.2975C88.621 59.2712 88.839 59.305 89.036 59.3952C89.2808 59.5047 89.482 59.6932 89.6072 59.9304C89.6984 60.1008 89.7176 60.2088 89.7296 60.204Z" fill="#3E4551"/>
<path d="M91.0472 59.2392C91.1039 59.2447 91.161 59.2447 91.2176 59.2392L91.7336 59.256L91.7144 59.2416C91.7744 59.5296 91.8488 59.904 91.94 60.3552L91.9592 60.3216L91.3328 60.6048H91.3136V60.6264C91.3007 60.8714 91.2547 61.1136 91.1768 61.3464V61.3704L91.1936 61.3896L91.6736 61.884V61.8288C91.4792 62.1288 91.2704 62.4456 91.052 62.7888L91.1096 62.7696L90.4664 62.5296H90.4352L90.4136 62.5512C90.2316 62.7137 90.0291 62.8516 89.8112 62.9616L89.7824 62.976V63.0096C89.7824 63.2208 89.7824 63.456 89.7824 63.696L89.8256 63.6432L88.712 63.8832L88.7768 63.9168L88.4912 63.2928L88.4744 63.2592H88.4384C88.1935 63.2484 87.9512 63.204 87.7184 63.1272L87.6848 63.1152L87.6584 63.1416C87.5024 63.2904 87.3344 63.456 87.164 63.6216H87.2408L86.2808 63.0024L86.3072 63.0768L86.5472 62.4312L86.5592 62.3952L86.5352 62.3664C86.3718 62.1871 86.233 61.987 86.1224 61.7712L86.0672 61.7352H85.7H85.3568L85.4168 61.7832C85.3376 61.4088 85.2584 61.0368 85.1768 60.672L85.1432 60.7392L85.7672 60.4512L85.8008 60.4368V60.3984C85.8123 60.1535 85.8567 59.9113 85.9328 59.6784L85.9448 59.6424L85.9184 59.616L85.4384 59.136V59.208C85.6496 58.8816 85.856 58.5648 86.0552 58.248L85.988 58.272L86.6336 58.512H86.6648L86.6912 58.488C86.8714 58.3247 87.0724 58.1859 87.2888 58.0752L87.3176 58.0608V58.0272C87.3176 57.7872 87.3176 57.564 87.3176 57.3408L87.2768 57.3912L88.388 57.1512L88.3352 57.1248L88.6256 57.7488L88.6376 57.7728H88.664C88.9087 57.7843 89.1507 57.8279 89.384 57.9024H89.408L89.4248 57.8856L89.9048 57.4056H89.8592L90.8192 58.0176V57.984L90.5792 58.632V58.644C90.7048 58.7794 90.8173 58.9265 90.9152 59.0832C90.9453 59.1369 90.9781 59.1889 91.0136 59.2392L90.9968 59.196C90.9968 59.1696 90.9632 59.1288 90.9344 59.0736C90.843 58.9091 90.7336 58.7553 90.608 58.6152V58.6368C90.6752 58.4592 90.7544 58.248 90.848 57.9936V57.972L90.8288 57.96L89.8688 57.3336L89.8424 57.3168L89.8208 57.3384L89.3264 57.8184H89.3672C89.1283 57.7382 88.8797 57.6905 88.628 57.6768L88.6664 57.7032L88.3808 57.0768L88.364 57.0432H88.328L87.2144 57.2832H87.1736V57.324C87.1736 57.5472 87.1736 57.7752 87.1616 58.0128L87.1904 57.9648C86.9642 58.0785 86.7543 58.2222 86.5664 58.392H86.624L85.9808 58.152L85.9376 58.1352L85.9112 58.1736C85.7096 58.4832 85.5032 58.8024 85.2896 59.1336L85.2656 59.1744L85.2968 59.208L85.7768 59.7024L85.7624 59.64C85.6843 59.8818 85.6375 60.1326 85.6232 60.3864L85.6592 60.3336L85.0352 60.6216L84.9896 60.6408V60.6888C85.0664 61.056 85.1456 61.4256 85.2296 61.8024V61.8504H85.2776H85.6208H85.9664L85.9112 61.8168C86.0263 62.0428 86.1708 62.2526 86.3408 62.4408V62.3784L86.1008 63.024L86.084 63.0696L86.1248 63.0984L87.0848 63.7152L87.1256 63.7416L87.1616 63.708L87.6416 63.228L87.5792 63.2424C87.821 63.3202 88.0719 63.3661 88.3256 63.3792L88.2752 63.3432C88.3736 63.5592 88.4744 63.7728 88.5632 63.9672L88.5824 64.0104H88.628L89.7416 63.7704H89.7848V63.7272C89.7848 63.4872 89.7848 63.2472 89.7848 63.0384L89.756 63.0864C89.981 62.9708 90.19 62.8264 90.3776 62.6568H90.3248L90.9704 62.8968H91.0064L91.028 62.8656L91.6448 61.9056L91.664 61.8744L91.6376 61.8504L91.1576 61.3704V61.4112C91.2343 61.1716 91.2795 60.9231 91.292 60.672L91.2704 60.7032L91.892 60.4104H91.916V60.3864C91.8152 59.9376 91.7312 59.5632 91.676 59.2752V59.2608H91.22H91.088L91.0472 59.2392Z" fill="#3E4551"/>
<path d="M89.7297 60.204C89.7207 60.1543 89.7078 60.1053 89.6913 60.0576C89.6443 59.9175 89.5719 59.7874 89.4777 59.6736C89.3465 59.5194 89.1794 59.3998 88.9911 59.3255C88.8028 59.2511 88.5991 59.2242 88.398 59.2472C88.1968 59.2702 88.0044 59.3423 87.8378 59.4572C87.6711 59.5722 87.5353 59.7263 87.4423 59.9062C87.3493 60.086 87.302 60.2859 87.3045 60.4884C87.3071 60.6908 87.3594 60.8895 87.4569 61.0669C87.5544 61.2444 87.6941 61.3951 87.8636 61.5057C88.0331 61.6164 88.2272 61.6837 88.4289 61.7016C88.6788 61.7231 88.9295 61.6696 89.1489 61.548C89.3772 61.4166 89.5604 61.2191 89.6745 60.9816C89.7304 60.8597 89.7684 60.7304 89.7873 60.5976C89.7909 60.5304 89.7909 60.4631 89.7873 60.396C89.7873 60.3624 89.7873 60.3288 89.7873 60.2952V60.2448V60.2112C89.7873 60.2112 89.7873 60.252 89.7369 60.2568L89.6697 60.2184C89.6855 60.2674 89.6951 60.3182 89.6985 60.3696C89.7198 60.615 89.663 60.8608 89.5363 61.072C89.4096 61.2832 89.2194 61.4489 88.9929 61.5456C88.7909 61.629 88.57 61.6557 88.354 61.6228C88.1379 61.5899 87.935 61.4986 87.767 61.3588C87.5991 61.219 87.4725 61.036 87.4009 60.8295C87.3293 60.6231 87.3155 60.401 87.3609 60.1872C87.4006 60.0091 87.4799 59.8421 87.5929 59.6988C87.7059 59.5555 87.8497 59.4394 88.0137 59.3592C88.2544 59.2455 88.5258 59.2142 88.7861 59.2702C89.0464 59.3261 89.281 59.4662 89.4537 59.6688C89.5817 59.8209 89.6721 60.0009 89.7177 60.1944C89.7233 60.1422 89.7159 60.0894 89.6961 60.0408C89.656 59.894 89.5866 59.7568 89.4921 59.6376C89.3415 59.4473 89.1389 59.3047 88.9089 59.2272C88.5991 59.1248 88.2621 59.1437 87.9657 59.28C87.7497 59.3803 87.5654 59.5378 87.4327 59.7355C87.3 59.9332 87.224 60.1635 87.2129 60.4013C87.2018 60.6391 87.2561 60.8755 87.3699 61.0846C87.4836 61.2938 87.6525 61.4678 87.8582 61.5877C88.0639 61.7076 88.2985 61.7689 88.5366 61.7649C88.7746 61.7609 89.007 61.6918 89.2086 61.565C89.4101 61.4382 89.5731 61.2587 89.6797 61.0458C89.7864 60.833 89.8327 60.5949 89.8137 60.3576C89.8084 60.2949 89.7964 60.2329 89.7777 60.1728L89.7609 60.1248H89.7081C89.6958 60.1282 89.6845 60.1345 89.6753 60.1433C89.6661 60.1521 89.6592 60.1631 89.6553 60.1752V60.24V60.288C89.6553 60.3192 89.6553 60.348 89.6553 60.3792C89.6589 60.4407 89.6589 60.5025 89.6553 60.564C89.632 60.759 89.5586 60.9446 89.4423 61.1028C89.326 61.261 89.1708 61.3864 88.9916 61.4668C88.8125 61.5472 88.6156 61.5799 88.4201 61.5617C88.2246 61.5434 88.0372 61.4749 87.876 61.3628C87.7148 61.2507 87.5854 61.0987 87.5004 60.9217C87.4153 60.7448 87.3775 60.5488 87.3907 60.3529C87.4038 60.157 87.4674 59.9678 87.5753 59.8038C87.6833 59.6397 87.8318 59.5064 88.0065 59.4168C88.2711 59.281 88.5774 59.251 88.8633 59.3328C89.0802 59.396 89.2749 59.5191 89.4249 59.688C89.5514 59.844 89.6541 60.0179 89.7297 60.204Z" fill="#3E4551"/>
<path d="M91.0472 59.2392H91.7432H91.7312C91.7912 59.5272 91.8728 59.9088 91.9712 60.3744L91.9832 60.348L91.3448 60.6432L91.3784 60.6816V60.6624L91.3304 60.648C91.3163 60.8929 91.2703 61.1349 91.1936 61.368H91.2512V61.344L91.2008 61.3728L91.7 61.8912V61.8504C91.4984 62.16 91.2848 62.4912 91.0568 62.8392L91.1 62.8248L90.4352 62.5848V62.6592H90.464L90.4304 62.5944C90.2476 62.7601 90.0434 62.9005 89.8232 63.012L89.876 63.0696L89.8928 63.0432L89.816 63.0216C89.816 63.2376 89.816 63.4824 89.816 63.7416L89.8496 63.6984L88.688 63.9384L88.7384 63.9648C88.6472 63.768 88.544 63.5424 88.4384 63.3168L88.3712 63.3744L88.4 63.3936L88.4264 63.3072C88.1815 63.2949 87.9393 63.2496 87.7064 63.1728V63.2664H87.7424L87.6968 63.1824L87.1832 63.6816H87.2456L86.2472 63.0312L86.2664 63.0912C86.3432 62.8872 86.4272 62.6544 86.5064 62.4216H86.4056V62.4576L86.4968 62.412C86.3317 62.2279 86.1913 62.0229 86.0792 61.8024L86.0024 61.8744L86.0336 61.8936L86.0624 61.7928H85.3424L85.3952 61.836L85.1552 60.6696L85.124 60.732L85.7744 60.4344L85.7024 60.3504L85.6832 60.3792L85.7864 60.4128C85.8002 60.1678 85.8462 59.9257 85.9232 59.6928H85.8104V59.7264L85.9064 59.6736L85.4096 59.1624V59.2344L86.06 58.236L85.988 58.26L86.6576 58.5V58.3848H86.6264L86.6768 58.488C86.8598 58.3242 87.0631 58.1847 87.2816 58.0728L87.2048 57.9864L87.188 58.0128L87.2984 58.0464C87.2984 57.8256 87.2984 57.5808 87.3104 57.3264L87.2624 57.3864L88.4192 57.1464L88.3496 57.1128L88.6448 57.756L88.736 57.6792L88.7144 57.6648L88.676 57.7776C88.9209 57.7906 89.163 57.8358 89.396 57.912V57.7944H89.372L89.4296 57.9L89.936 57.42H89.8592L90.836 58.0584L90.8096 57.984L90.5696 58.6392H90.6896L90.5816 58.692C90.7226 58.8492 90.8436 59.0233 90.9416 59.2104L90.9656 59.2536H90.9776C90.9584 59.2536 91.0496 59.2032 91.064 59.232L91.0112 59.1408C90.9752 59.0784 90.9368 59.016 90.896 58.9584C90.8153 58.8395 90.7263 58.7264 90.6296 58.62V58.6848C90.7088 58.464 90.788 58.248 90.8696 58.032H90.752V58.0512L90.8432 57.9792L89.8832 57.3624L89.8568 57.4776H89.8832L89.8328 57.372C89.6648 57.5352 89.4992 57.7008 89.3312 57.852L89.3936 57.8376C89.1451 57.7565 88.8868 57.7097 88.6256 57.6984L88.6808 57.7344L88.3832 57.0984L88.2992 57.1776L88.3304 57.1944L88.3448 57.0792L87.2336 57.3192L87.2912 57.4152L87.3152 57.3888L87.2072 57.348C87.2072 57.5864 87.2072 57.8216 87.2072 58.0536L87.2408 58.0008C87.005 58.1195 86.7869 58.2706 86.5928 58.4496L86.6552 58.4376L85.9904 58.1976V58.308L86.0288 58.296L85.9616 58.2072L85.3424 59.1672L85.4504 59.1936V59.1528L85.352 59.1984L85.8464 59.7048L85.832 59.6472C85.7498 59.8979 85.7022 60.1587 85.6904 60.4224L85.724 60.3744L85.0808 60.672L85.1552 60.7488L85.1744 60.7104L85.0688 60.696C85.1504 61.0752 85.2296 61.4448 85.3088 61.8072L85.3952 61.7544L85.3616 61.7256L85.328 61.824H86.036L85.988 61.7952C86.1064 62.0312 86.2575 62.2494 86.4368 62.4432L86.4248 62.3904C86.3408 62.6304 86.2616 62.8416 86.1848 63.0552H86.2808L86.2688 63.0144L86.192 63.0744L87.152 63.6912L87.1736 63.6H87.1304L87.1712 63.684L87.6776 63.1896L87.6272 63.2016C87.8768 63.2854 88.137 63.3331 88.4 63.3432L88.3616 63.3168L88.6568 63.9576L88.7192 63.9L88.6832 63.8808V63.9648L89.7968 63.7248L89.7536 63.6552L89.7296 63.6864L89.8064 63.7128C89.8064 63.4536 89.8064 63.2328 89.8064 63.0072L89.7848 63.0432C90.0184 62.9272 90.2342 62.7785 90.4256 62.6016H90.3872L91.0496 62.8416V62.7744H91.0184L91.0592 62.8296L91.676 61.8696L91.6184 61.8552V61.884L91.6736 61.86L91.1936 61.3584V61.3872C91.2741 61.1426 91.3209 60.8883 91.3328 60.6312L91.316 60.6528L91.952 60.3576L91.9232 60.3288V60.348H91.964C91.8608 59.868 91.784 59.5104 91.724 59.2368L91.7 59.2512V59.2272H91.0112C91.0673 59.2384 91.1245 59.2433 91.1816 59.2416L91.6976 59.2608H91.7384L91.7072 59.2344L91.676 59.208V59.2464C91.7312 59.5224 91.8032 59.8776 91.8992 60.3624V60.4248L91.928 60.3672V60.348L91.9568 60.2928L91.8992 60.3192L91.2632 60.6048H91.2488V60.6216C91.2358 60.8733 91.1881 61.122 91.1072 61.3608V61.3776V61.392L91.5872 61.896L91.6496 61.9632V61.872V61.8408V61.7496L91.5992 61.8264L90.9752 62.7864L90.9176 62.8728L91.016 62.8416L91.0496 62.8296L91.148 62.7984L91.0496 62.7624L90.3896 62.5224H90.368L90.3512 62.5392C90.1635 62.7103 89.9527 62.8541 89.7248 62.9664L89.7008 62.9784V63.0024C89.7008 63.2232 89.7008 63.4488 89.6888 63.708V63.828L89.768 63.7344L89.792 63.7056L89.8688 63.612L89.7512 63.636L88.6376 63.876L88.5104 63.9024L88.6256 63.9624L88.6616 63.9792L88.7768 64.0368L88.724 63.9192C88.6304 63.7152 88.5344 63.5088 88.4288 63.276L88.4168 63.252H88.388C88.134 63.2405 87.8828 63.1936 87.6416 63.1128H87.6128L87.5936 63.132L87.0848 63.6264L86.9816 63.7248L87.1232 63.7104H87.1664L87.308 63.6984L87.188 63.6192L86.228 63L86.1056 62.9184L86.1512 63.0576L86.1656 63.1008L86.2112 63.24L86.2616 63.1008L86.5016 62.436V62.4072L86.48 62.3832C86.3083 62.1954 86.1637 61.9846 86.0504 61.7568L86.036 61.728H86.0024H85.2944H85.1384L85.2584 61.8288L85.292 61.8552L85.4144 61.956L85.3808 61.8024C85.304 61.44 85.2272 61.0704 85.1408 60.6888L85.1072 60.5328L85.0352 60.6768L85.016 60.7152L84.944 60.8592L85.0904 60.7896L85.7336 60.4944L85.7648 60.48V60.444C85.7752 60.1908 85.8212 59.9403 85.9016 59.7V59.6664L85.8776 59.6424L85.3832 59.1336L85.2656 59.0136L85.2824 59.1816V59.2224L85.2968 59.388L85.388 59.2488L86.0072 58.2888L86.1008 58.1472L85.94 58.2L85.9016 58.212L85.7384 58.2672L85.8992 58.3248L86.5616 58.5648L86.5976 58.5768L86.624 58.5528C86.8099 58.381 87.0192 58.2363 87.2456 58.1232L87.2768 58.1064V58.0704C87.2768 57.8304 87.2768 57.6024 87.2768 57.3648V57.192L87.1664 57.3264L87.1424 57.3528L87.032 57.4872L87.2024 57.4512L88.316 57.2112L88.4864 57.1728L88.3304 57.096L88.2992 57.0816L88.1432 57.0024L88.2176 57.1608C88.3136 57.372 88.4144 57.5856 88.5128 57.7992L88.5272 57.8328H88.5656C88.8161 57.8432 89.064 57.8876 89.3024 57.9648H89.336L89.3648 57.9384L89.864 57.4584L89.9912 57.3336L89.816 57.3504H89.7896L89.612 57.3696L89.7608 57.4656L90.7208 58.08L90.8696 58.176L90.8144 58.008V57.9912L90.7592 57.8184L90.6968 57.9888C90.62 58.2048 90.5408 58.4208 90.4568 58.6416V58.6776L90.4808 58.7064C90.5749 58.8065 90.6608 58.9141 90.7376 59.028C90.776 59.0856 90.8144 59.1432 90.848 59.2056L90.9032 59.2968V59.3088C90.9176 59.34 91.0088 59.292 90.992 59.2896V59.2536C90.9893 59.2329 90.9837 59.2127 90.9752 59.1936L90.9488 59.1456C90.8472 58.9485 90.7205 58.7654 90.572 58.6008L90.4208 58.4304L90.464 58.656L90.5048 58.8744L90.584 58.668L90.824 58.0128L90.8408 57.9648L90.8 57.9384L89.8232 57.2976L89.7824 57.2712L89.7464 57.3048C89.5736 57.4752 89.3984 57.6432 89.24 57.7968L89.0792 57.9504L89.2976 57.9H89.3216L89.5352 57.8496L89.3264 57.78C89.0832 57.701 88.8306 57.6542 88.5752 57.6408H88.352L88.5368 57.7656L88.5584 57.78L88.7408 57.9024L88.6496 57.7032C88.5464 57.48 88.4456 57.2592 88.3544 57.0576L88.3328 57.0144H88.2848L87.128 57.2544H87.08V57.3024C87.08 57.5424 87.08 57.7824 87.08 58.0224V58.2408L87.1928 58.056L87.2096 58.0296L87.3248 57.8472L87.1328 57.9432C86.9038 58.0589 86.6915 58.205 86.5016 58.3776L86.3408 58.5216L86.552 58.4808H86.5832L86.7944 58.44L86.5928 58.3656L85.9232 58.1256L85.88 58.1088L85.8536 58.1472L85.2056 59.1456L85.1792 59.1864L85.2128 59.22L85.712 59.7312L85.856 59.88L85.8104 59.676V59.6424L85.7648 59.4432L85.7 59.6376C85.6207 59.8816 85.5739 60.135 85.5608 60.3912V60.5952L85.6736 60.4272L85.6952 60.396L85.808 60.228L85.6232 60.312L84.9752 60.612L84.9344 60.6312V60.6768C85.0232 61.0824 85.1072 61.4832 85.1864 61.8432V61.8864H85.232H85.952H86.144L85.9808 61.7856L85.9496 61.7664L85.7864 61.6656L85.8728 61.8384C85.9897 62.0653 86.1357 62.2759 86.3072 62.4648L86.4344 62.604L86.3984 62.4192V62.3856L86.3624 62.1984L86.2976 62.376L86.0576 63.048L86.0432 63.0864L86.0768 63.1104L87.08 63.756L87.1136 63.7776L87.14 63.7512L87.6512 63.2496L87.86 63.12L87.692 63.1584H87.656L87.488 63.1968L87.6536 63.2496C87.8967 63.3291 88.1494 63.3751 88.4048 63.3864H88.5704L88.4312 63.2928L88.4048 63.2736L88.2632 63.18L88.3352 63.3312L88.6352 63.9792L88.652 64.0104H88.6856L89.8496 63.7584H89.8808V63.7248C89.8808 63.4848 89.8808 63.2304 89.8808 63.0048V62.8608L89.804 62.9832L89.7872 63.0096L89.7104 63.1344L89.84 63.0672C90.0669 62.9515 90.2768 62.8054 90.464 62.6328L90.5648 62.5416L90.4304 62.568H90.4016L90.2648 62.5944L90.3944 62.6424L91.0616 62.8824H91.0904L91.1048 62.8584L91.7432 61.8648V61.8432L91.7264 61.824L91.2296 61.32L91.1552 61.2456L91.1792 61.3488V61.3704L91.2032 61.476L91.2368 61.3728C91.3139 61.1326 91.3583 60.8832 91.3688 60.6312V60.5376L91.3184 60.6144V60.6336L91.2656 60.7104L91.3496 60.672L91.9856 60.3696H92.0024V60.3528L91.7456 59.22H91.2248H91.0928L91.0472 59.2392Z" fill="#3E4551"/>
<path d="M77.5376 31.0344V33.1752H112.405V9.83044H110.079" fill="#6869AC"/>
<path opacity="0.8" d="M77.5376 31.0344V33.1752H112.405V9.83044H110.079" fill="white"/>
<path d="M75.104 7.57446H109.971V30.9217H75.104V7.57446Z" fill="white"/>
<path d="M75.1039 30.9192C75.1039 30.9192 75.1039 30.7728 75.1039 30.4944C75.1039 30.216 75.1039 29.8008 75.1039 29.2632C75.1039 28.1832 75.1039 26.5968 75.1039 24.5688C75.1039 20.5104 75.1183 14.6808 75.1303 7.57443L75.0799 7.62243L109.945 7.63683L109.882 7.57443C109.882 15.8904 109.882 23.7984 109.882 30.9192L109.94 30.8616L84.8215 30.8904L77.6431 30.9048H75.7351H75.2431H75.0727H75.2359H75.7159H77.6143L84.7783 30.9192L109.935 30.948H109.993V30.8904C109.993 23.7696 109.993 15.8616 109.993 7.54564V7.48083H109.928L75.0631 7.49523H75.0127V7.54564C75.0247 14.6664 75.0343 20.5056 75.0391 24.5688C75.0391 26.5944 75.0391 28.1688 75.0511 29.2536C75.0511 29.7888 75.0511 30.1992 75.0511 30.4776C75.0511 30.756 75.1039 30.9192 75.1039 30.9192Z" fill="#6869AC"/>
<path d="M109.971 9.65762C109.971 9.62162 102.171 9.59521 92.5544 9.59521C82.9376 9.59521 75.1328 9.62162 75.1328 9.65762C75.1328 9.69362 82.9304 9.72001 92.5544 9.72001C102.178 9.72001 109.971 9.69122 109.971 9.65762Z" fill="#6869AC"/>
<path d="M108.596 8.60649C108.596 8.66203 108.612 8.71632 108.643 8.7625C108.674 8.80868 108.718 8.84467 108.769 8.86592C108.821 8.88717 108.877 8.89273 108.931 8.8819C108.986 8.87106 109.036 8.84432 109.075 8.80505C109.114 8.76578 109.141 8.71575 109.152 8.66128C109.163 8.60681 109.157 8.55035 109.136 8.49904C109.115 8.44773 109.079 8.40387 109.033 8.37302C108.986 8.34216 108.932 8.32569 108.877 8.32569C108.84 8.32537 108.803 8.33242 108.769 8.34642C108.735 8.36042 108.704 8.38109 108.677 8.40723C108.651 8.43336 108.631 8.46445 108.617 8.49866C108.603 8.53287 108.596 8.56953 108.596 8.60649Z" fill="#6869AC"/>
<path d="M107.638 8.60649C107.638 8.66203 107.655 8.71632 107.686 8.7625C107.717 8.80868 107.76 8.84467 107.812 8.86592C107.863 8.88717 107.919 8.89273 107.974 8.8819C108.028 8.87106 108.078 8.84432 108.118 8.80505C108.157 8.76578 108.184 8.71575 108.195 8.66128C108.205 8.60681 108.2 8.55035 108.179 8.49904C108.157 8.44773 108.121 8.40387 108.075 8.37302C108.029 8.34216 107.975 8.32569 107.919 8.32569C107.882 8.32537 107.846 8.33242 107.811 8.34642C107.777 8.36042 107.746 8.38109 107.72 8.40723C107.694 8.43336 107.673 8.46445 107.659 8.49866C107.645 8.53287 107.638 8.56953 107.638 8.60649Z" fill="#6869AC"/>
<path d="M106.695 8.60649C106.695 8.66213 106.712 8.71652 106.743 8.76274C106.774 8.80897 106.818 8.84496 106.869 8.86614C106.921 8.88732 106.977 8.89274 107.032 8.88171C107.086 8.87068 107.136 8.8437 107.175 8.80419C107.215 8.76467 107.241 8.71442 107.252 8.65979C107.262 8.60516 107.256 8.54863 107.235 8.49736C107.213 8.4461 107.177 8.40241 107.13 8.37185C107.084 8.34128 107.029 8.32522 106.974 8.32569C106.937 8.32569 106.9 8.33297 106.867 8.34711C106.833 8.36125 106.802 8.38198 106.776 8.40808C106.75 8.43419 106.73 8.46516 106.716 8.49922C106.702 8.53327 106.695 8.56973 106.695 8.60649Z" fill="#6869AC"/>
<g opacity="0.6">
<path d="M108.596 8.60649C108.596 8.66203 108.612 8.71632 108.643 8.7625C108.674 8.80868 108.718 8.84467 108.769 8.86592C108.821 8.88717 108.877 8.89273 108.931 8.8819C108.986 8.87106 109.036 8.84432 109.075 8.80505C109.114 8.76578 109.141 8.71575 109.152 8.66128C109.163 8.60681 109.157 8.55035 109.136 8.49904C109.115 8.44773 109.079 8.40387 109.033 8.37302C108.986 8.34216 108.932 8.32569 108.877 8.32569C108.84 8.32537 108.803 8.33242 108.769 8.34642C108.735 8.36042 108.704 8.38109 108.677 8.40723C108.651 8.43336 108.631 8.46445 108.617 8.49866C108.603 8.53287 108.596 8.56953 108.596 8.60649Z" fill="white"/>
<path d="M107.638 8.60649C107.638 8.66203 107.655 8.71632 107.686 8.7625C107.717 8.80868 107.76 8.84467 107.812 8.86592C107.863 8.88717 107.919 8.89273 107.974 8.8819C108.028 8.87106 108.078 8.84432 108.118 8.80505C108.157 8.76578 108.184 8.71575 108.195 8.66128C108.205 8.60681 108.2 8.55035 108.179 8.49904C108.157 8.44773 108.121 8.40387 108.075 8.37302C108.029 8.34216 107.975 8.32569 107.919 8.32569C107.882 8.32537 107.846 8.33242 107.811 8.34642C107.777 8.36042 107.746 8.38109 107.72 8.40723C107.694 8.43336 107.673 8.46445 107.659 8.49866C107.645 8.53287 107.638 8.56953 107.638 8.60649Z" fill="white"/>
<path d="M106.695 8.60649C106.695 8.66213 106.712 8.71652 106.742 8.76274C106.773 8.80897 106.817 8.84496 106.869 8.86614C106.92 8.88732 106.977 8.89274 107.031 8.88171C107.086 8.87068 107.136 8.8437 107.175 8.80419C107.214 8.76467 107.241 8.71442 107.251 8.65979C107.262 8.60516 107.256 8.54863 107.235 8.49736C107.213 8.4461 107.177 8.40241 107.13 8.37185C107.084 8.34128 107.029 8.32522 106.973 8.32569C106.937 8.32569 106.9 8.33297 106.866 8.34711C106.832 8.36125 106.802 8.38198 106.776 8.40808C106.75 8.43419 106.729 8.46516 106.715 8.49922C106.702 8.53327 106.695 8.56973 106.695 8.60649Z" fill="white"/>
</g>
<g opacity="0.3">
<path d="M97.6736 12.0912H106.974V21.3912H97.6736V12.0912Z" fill="#6869AC"/>
</g>
<path d="M79.8848 14.7193C79.8848 14.7553 83.5136 14.7817 87.9872 14.7817C92.4608 14.7817 96.0896 14.7553 96.0896 14.7193C96.0896 14.6833 92.4632 14.6569 87.9872 14.6569C83.5112 14.6569 79.8848 14.6857 79.8848 14.7193Z" fill="#6869AC"/>
<path d="M79.8848 16.4496C79.8848 16.4832 83.5136 16.512 87.9872 16.512C92.4608 16.512 96.0896 16.4832 96.0896 16.4496C96.0896 16.416 92.4632 16.3872 87.9872 16.3872C83.5112 16.3872 79.8848 16.4136 79.8848 16.4496Z" fill="#6869AC"/>
<path d="M79.8848 18.1776C79.8848 18.2112 83.5136 18.24 87.9872 18.24C92.4608 18.24 96.0896 18.2112 96.0896 18.1776C96.0896 18.144 92.4632 18.1152 87.9872 18.1152C83.5112 18.1152 79.8848 18.1416 79.8848 18.1776Z" fill="#6869AC"/>
<path d="M86.5136 19.9056C86.6374 19.9253 86.7627 19.9333 86.888 19.9296L87.9152 19.9488C88.7816 19.9488 89.9792 19.968 91.3016 19.968C92.624 19.968 93.8192 19.968 94.6856 19.9488L95.7128 19.92C95.8389 19.9236 95.965 19.9155 96.0896 19.896C95.965 19.8765 95.8389 19.8685 95.7128 19.872L94.6856 19.8528C93.8192 19.8408 92.624 19.8336 91.3016 19.8336C89.9792 19.8336 88.7816 19.8336 87.9152 19.8528L86.888 19.872C86.7624 19.8715 86.6371 19.8828 86.5136 19.9056Z" fill="#6869AC"/>
<path d="M102.022 24.5281H106.393V28.8985H102.022V24.5281Z" fill="#6869AC"/>
<path opacity="0.6" d="M102.022 24.5281H106.393V28.8985H102.022V24.5281Z" fill="white"/>
<path d="M94.0952 24.5281H98.4656V28.8985H94.0952V24.5281Z" fill="#6869AC"/>
<path opacity="0.6" d="M94.0952 24.5281H98.4656V28.8985H94.0952V24.5281Z" fill="white"/>
<path d="M86.1679 24.5281H90.5383V28.8985H86.1679V24.5281Z" fill="#6869AC"/>
<path opacity="0.6" d="M86.1679 24.5281H90.5383V28.8985H86.1679V24.5281Z" fill="white"/>
<path d="M78.2407 24.5281H82.6111V28.8985H78.2407V24.5281Z" fill="#6869AC"/>
<path opacity="0.6" d="M78.2407 24.5281H82.6111V28.8985H78.2407V24.5281Z" fill="white"/>
<path d="M7.82008 55.2552H47.2881V71.2873H7.82008V55.2552Z" fill="white"/>
<path d="M7.81754 71.28C7.81754 71.28 7.81754 71.1816 7.81754 70.9944C7.81754 70.8072 7.81754 70.5264 7.81754 70.1616C7.81754 69.4296 7.81754 68.3568 7.82954 66.972C7.82954 64.2048 7.84394 60.2016 7.85355 55.248L7.80795 55.2936L47.2735 55.3104L47.2087 55.248C47.2087 60.864 47.2087 66.288 47.2087 71.28L47.2687 71.22L18.9799 71.256L10.7695 71.2728H8.57355H8.00474H7.80795H7.99754H8.55914H10.7431L18.9391 71.2896L47.2783 71.3184H47.3359V71.28C47.3359 66.2808 47.3359 60.864 47.3359 55.248V55.2H47.2687L7.80314 55.2192H7.75994V55.2624C7.75994 60.228 7.77914 64.2384 7.78394 67.0224C7.78394 68.4024 7.78394 69.4728 7.78394 70.2024C7.78394 70.5624 7.78394 70.8384 7.78394 71.0256C7.78394 71.2128 7.81754 71.28 7.81754 71.28Z" fill="#6869AC"/>
<path d="M47.2471 57.4176C47.2471 57.384 38.4247 57.3552 27.5455 57.3552C16.6663 57.3552 7.84147 57.384 7.84147 57.4176C7.84147 57.4512 16.6615 57.48 27.5455 57.48C38.4295 57.48 47.2471 57.4536 47.2471 57.4176Z" fill="#6869AC"/>
<path d="M45.596 56.4505C45.596 56.5069 45.6128 56.5622 45.6442 56.6091C45.6756 56.6561 45.7202 56.6927 45.7723 56.7143C45.8245 56.7359 45.8819 56.7416 45.9373 56.7306C45.9928 56.7195 46.0436 56.6923 46.0836 56.6524C46.1235 56.6125 46.1507 56.5616 46.1617 56.5062C46.1728 56.4508 46.1671 56.3933 46.1455 56.3412C46.1239 56.289 46.0873 56.2444 46.0403 56.213C45.9933 56.1816 45.9381 56.1649 45.8816 56.1649C45.8059 56.1649 45.7332 56.1949 45.6797 56.2485C45.6261 56.3021 45.596 56.3747 45.596 56.4505Z" fill="#6869AC"/>
<path d="M44.6144 56.4504C44.6153 56.5067 44.6329 56.5614 44.6648 56.6078C44.6968 56.6541 44.7417 56.69 44.794 56.7108C44.8462 56.7317 44.9035 56.7367 44.9586 56.7251C45.0137 56.7136 45.0641 56.686 45.1036 56.6459C45.143 56.6058 45.1698 56.5549 45.1804 56.4996C45.191 56.4443 45.1851 56.3872 45.1634 56.3353C45.1416 56.2834 45.105 56.239 45.0581 56.2079C45.0113 56.1767 44.9563 56.16 44.9 56.16C44.8621 56.16 44.8245 56.1676 44.7896 56.1822C44.7546 56.1969 44.7229 56.2183 44.6963 56.2454C44.6697 56.2724 44.6488 56.3045 44.6347 56.3397C44.6207 56.3749 44.6137 56.4125 44.6144 56.4504Z" fill="#6869AC"/>
<path d="M43.6471 56.4504C43.6481 56.5064 43.6654 56.5608 43.6971 56.607C43.7287 56.6531 43.7732 56.689 43.8251 56.7101C43.8769 56.7312 43.9338 56.7365 43.9887 56.7256C44.0436 56.7146 44.094 56.6877 44.1338 56.6483C44.1735 56.6089 44.2008 56.5587 44.2122 56.5039C44.2237 56.4491 44.2188 56.3921 44.1981 56.3401C44.1775 56.2881 44.142 56.2433 44.0961 56.2113C44.0502 56.1793 43.9959 56.1614 43.9399 56.16C43.9014 56.159 43.8631 56.1659 43.8273 56.1801C43.7915 56.1943 43.7589 56.2156 43.7315 56.2427C43.7042 56.2699 43.6826 56.3022 43.6681 56.3379C43.6536 56.3736 43.6464 56.4119 43.6471 56.4504Z" fill="#6869AC"/>
<g opacity="0.6">
<path d="M45.596 56.4504C45.596 56.5069 45.6128 56.5621 45.6442 56.6091C45.6756 56.656 45.7202 56.6926 45.7723 56.7143C45.8245 56.7359 45.8819 56.7415 45.9373 56.7305C45.9928 56.7195 46.0436 56.6923 46.0836 56.6523C46.1235 56.6124 46.1507 56.5615 46.1617 56.5061C46.1728 56.4507 46.1671 56.3933 46.1455 56.3411C46.1239 56.2889 46.0873 56.2443 46.0403 56.2129C45.9933 56.1815 45.9381 56.1648 45.8816 56.1648C45.8059 56.1648 45.7332 56.1949 45.6797 56.2484C45.6261 56.302 45.596 56.3746 45.596 56.4504Z" fill="white"/>
<path d="M44.6144 56.4504C44.6153 56.5067 44.6329 56.5614 44.6648 56.6078C44.6968 56.6541 44.7417 56.69 44.794 56.7108C44.8462 56.7317 44.9035 56.7367 44.9586 56.7251C45.0137 56.7136 45.0641 56.686 45.1036 56.6459C45.143 56.6058 45.1698 56.5549 45.1804 56.4996C45.191 56.4443 45.1851 56.3872 45.1634 56.3353C45.1416 56.2834 45.105 56.239 45.0581 56.2079C45.0113 56.1767 44.9563 56.16 44.9 56.16C44.8621 56.16 44.8245 56.1676 44.7896 56.1822C44.7546 56.1969 44.7229 56.2183 44.6963 56.2454C44.6697 56.2724 44.6488 56.3045 44.6347 56.3397C44.6207 56.3749 44.6137 56.4125 44.6144 56.4504Z" fill="white"/>
<path d="M43.6473 56.4504C43.6483 56.5064 43.6657 56.5608 43.6973 56.607C43.729 56.6531 43.7735 56.689 43.8253 56.7101C43.8772 56.7312 43.9341 56.7365 43.989 56.7256C44.0438 56.7146 44.0943 56.6877 44.134 56.6483C44.1738 56.6089 44.201 56.5587 44.2125 56.5039C44.2239 56.4491 44.219 56.3921 44.1984 56.3401C44.1777 56.2881 44.1422 56.2433 44.0963 56.2113C44.0504 56.1793 43.9961 56.1614 43.9402 56.16C43.9016 56.159 43.8633 56.1659 43.8275 56.1801C43.7917 56.1943 43.7591 56.2156 43.7318 56.2427C43.7044 56.2699 43.6829 56.3022 43.6683 56.3379C43.6538 56.3736 43.6467 56.4119 43.6473 56.4504Z" fill="white"/>
</g>
<path d="M34.4001 60.024H43.9329V69.5568H34.4001V60.024Z" fill="#6869AC"/>
<path opacity="0.6" d="M34.4001 60.024H43.9329V69.5568H34.4001V60.024Z" fill="white"/>
<path d="M10.5487 62.5777C10.5487 62.6137 15.4543 62.6401 21.5047 62.6401C27.5551 62.6401 32.4607 62.6137 32.4607 62.5777C32.4607 62.5417 27.5575 62.5153 21.5047 62.5153C15.4519 62.5153 10.5487 62.5441 10.5487 62.5777Z" fill="#6869AC"/>
<path d="M10.5487 64.5216C10.5487 64.5552 15.4543 64.584 21.5047 64.584C27.5551 64.584 32.4607 64.5552 32.4607 64.5216C32.4607 64.488 27.5575 64.4592 21.5047 64.4592C15.4519 64.4592 10.5487 64.4856 10.5487 64.5216Z" fill="#6869AC"/>
<path d="M18.3559 66.4632C18.4033 66.4723 18.4516 66.4763 18.4999 66.4752H18.9103L20.4223 66.4944L25.4095 66.5136L30.3967 66.4944L31.9087 66.4752H32.3191C32.3666 66.4764 32.4141 66.4724 32.4607 66.4632C32.4143 66.4525 32.3666 66.4484 32.3191 66.4512L31.9087 66.4392L30.3967 66.4176L25.4095 66.4008L20.4223 66.4176L18.9103 66.4392L18.4999 66.4512C18.4516 66.4486 18.4031 66.4526 18.3559 66.4632Z" fill="#6869AC"/>
</svg>
