<svg width="121" height="120" viewBox="0 0 121 120" fill="none" xmlns="http://www.w3.org/2000/svg">
<path d="M19.2047 97.6125C42.0108 109.527 78.9893 109.527 101.795 97.6125C124.602 85.6984 124.602 66.3812 101.795 54.4644C78.9893 42.5477 42.0213 42.5503 19.2047 54.4644C-3.61187 66.3786 -3.59101 85.6984 19.2047 97.6125Z" fill="#E8E5F9"/>
<path d="M29.8959 85.0594C29.8959 85.0594 29.9246 80.9237 27.317 77.8232C25.0092 75.0774 23.781 73.3356 24.5086 72.5324C25.2361 71.7293 26.8007 71.5363 28.9102 73.758C31.0198 75.9797 31.184 82.1336 30.892 83.5261L29.8959 85.0594Z" fill="#6869AC"/>
<path opacity="0.2" d="M29.8959 85.0594C29.8959 85.0594 29.9246 80.9237 27.317 77.8232C25.0092 75.0774 23.781 73.3356 24.5086 72.5324C25.2361 71.7293 26.8007 71.5363 28.9102 73.758C31.0198 75.9797 31.184 82.1336 30.892 83.5261L29.8959 85.0594Z" fill="#101723"/>
<path d="M30.3339 80.6133C30.3042 80.6135 30.2753 80.6034 30.2521 80.5849C30.2289 80.5665 30.2126 80.5406 30.2061 80.5116C29.2934 76.243 26.9518 73.8831 25.635 72.8557C25.6077 72.8346 25.5899 72.8035 25.5855 72.7693C25.5811 72.7351 25.5905 72.7005 25.6115 72.6731C25.6331 72.6457 25.6646 72.6279 25.6993 72.6235C25.7339 72.6191 25.7689 72.6285 25.7966 72.6497C27.1396 73.6927 29.5307 76.1074 30.4617 80.4569C30.4655 80.4735 30.4659 80.4907 30.463 80.5075C30.4601 80.5243 30.4538 80.5403 30.4446 80.5547C30.4353 80.569 30.4233 80.5814 30.4092 80.591C30.3951 80.6006 30.3793 80.6073 30.3626 80.6107L30.3339 80.6133Z" fill="white"/>
<path d="M29.7967 86.5951L28.7354 87.2079C28.6222 86.8985 28.4313 86.6235 28.181 86.4093C27.9308 86.1952 27.6296 86.049 27.3065 85.9849C26.1461 85.7241 24.9414 85.7685 24.1278 84.7619C23.3142 83.7554 24.3051 82.6602 24.1278 81.9196C23.9505 81.1791 23.8357 80.9653 22.3807 80.2247C20.9256 79.4841 20.352 78.2559 21.4472 77.4241C22.5424 76.5923 24.3155 77.2025 25.3899 77.9456C26.3443 78.5975 27.2517 78.7697 28.3182 78.9026C29.3847 79.0356 31.1214 79.6276 30.8554 82.1048C30.6813 83.6381 30.3259 85.1454 29.7967 86.5951Z" fill="#6869AC"/>
<path d="M25.7237 83.3408C25.6959 83.3406 25.6689 83.3317 25.6465 83.3153C25.624 83.2989 25.6072 83.276 25.5985 83.2496C25.5887 83.2164 25.5921 83.1807 25.6082 83.15C25.6243 83.1193 25.6517 83.0961 25.6846 83.0853C25.7785 83.0566 28.0314 82.3421 28.9884 83.1088C29.0122 83.1312 29.0267 83.1617 29.029 83.1943C29.0313 83.2269 29.0213 83.2591 29.001 83.2847C28.9807 83.3103 28.9515 83.3273 28.9192 83.3324C28.887 83.3375 28.854 83.3302 28.8268 83.3122C27.9819 82.6342 25.7863 83.3278 25.7628 83.3356L25.7237 83.3408Z" fill="white"/>
<path d="M29.914 86.3971C29.8822 86.3972 29.8516 86.3856 29.8279 86.3644C29.8043 86.3432 29.7894 86.3139 29.7862 86.2823C29.2047 80.7907 22.5892 78.1857 22.524 78.1596C22.5078 78.1536 22.493 78.1444 22.4805 78.1325C22.4679 78.1207 22.4578 78.1065 22.4508 78.0907C22.4437 78.0749 22.4399 78.0579 22.4395 78.0407C22.4391 78.0234 22.4421 78.0062 22.4484 77.9902C22.4612 77.9586 22.4857 77.9331 22.5167 77.919C22.5478 77.9049 22.5831 77.9033 22.6153 77.9145C22.6857 77.9432 29.4472 80.603 30.0444 86.2589C30.048 86.2931 30.038 86.3274 30.0165 86.3542C29.995 86.3811 29.9638 86.3984 29.9296 86.4023L29.914 86.3971Z" fill="white"/>
<path d="M94.7731 82.9889C94.8018 82.8976 95.9205 77.14 94.7731 73.0565C93.7301 69.312 92.3689 67.9299 90.4289 67.6249C88.4888 67.3198 87.6465 68.7174 88.6765 70.6106C89.7066 72.5037 92.1864 75.0148 92.794 79.2444C93.0547 80.9862 93.2529 82.4987 93.2529 82.4987L94.7731 82.9889Z" fill="#6869AC"/>
<path opacity="0.2" d="M94.7731 82.9889C94.8018 82.8976 95.9205 77.14 94.7731 73.0565C93.7301 69.312 92.3689 67.9299 90.4289 67.6249C88.4888 67.3198 87.6465 68.7174 88.6765 70.6106C89.7066 72.5037 92.1864 75.0148 92.794 79.2444C93.0547 80.9862 93.2529 82.4987 93.2529 82.4987L94.7731 82.9889Z" fill="#101723"/>
<path d="M94.1186 79.6824C94.1015 79.6814 94.0847 79.6771 94.0693 79.6696C94.0538 79.6621 94.04 79.6516 94.0286 79.6388C94.0173 79.6259 94.0085 79.611 94.0029 79.5947C93.9973 79.5785 93.995 79.5613 93.9961 79.5442C94.2568 74.8818 92.734 70.7201 90.0038 68.6783C89.9762 68.6576 89.9579 68.6267 89.953 68.5925C89.9481 68.5582 89.957 68.5234 89.9777 68.4958C89.9989 68.4687 90.0297 68.4508 90.0638 68.446C90.0978 68.4411 90.1324 68.4496 90.1603 68.4697C92.9582 70.5558 94.528 74.8114 94.2542 79.5599C94.2522 79.594 94.2368 79.626 94.2115 79.6489C94.1861 79.6718 94.1528 79.6839 94.1186 79.6824Z" fill="white"/>
<path d="M97.7745 85.9875C97.6259 84.9158 98.2413 83.3095 99.7041 82.9288C101.167 82.5481 101.819 81.7084 101.292 80.7905C100.765 79.8727 100.888 79.0304 102.215 78.6497C103.543 78.269 104.706 77.6067 103.941 76.2038C103.386 75.1894 103.264 74.5323 104.625 72.5349C105.754 70.8764 104.831 69.9038 103.417 70.0863C102.004 70.2689 101.13 71.9534 100.247 72.235C99.3625 72.5166 99.1591 71.0146 97.9935 71.6874C96.8279 72.3602 96.8983 74.0838 96.8618 75.2859C96.8253 76.488 96.7471 76.7592 95.6936 76.6132C94.6401 76.4671 93.6075 76.6392 93.631 79.1869C93.6493 81.372 94.8149 84.0787 94.8149 84.0787L97.7745 85.9875Z" fill="#6869AC"/>
<path d="M95.9258 84.3579H95.9127C95.8779 84.354 95.846 84.3364 95.824 84.3091C95.802 84.2817 95.7917 84.2468 95.7954 84.2119C96.5307 77.6433 102.168 72.1022 103.639 70.9783C103.667 70.9572 103.702 70.9479 103.736 70.9526C103.771 70.9572 103.802 70.9754 103.823 71.0031C103.844 71.0307 103.853 71.0656 103.849 71.1001C103.844 71.1346 103.826 71.1658 103.798 71.1869C102.346 72.2951 96.7811 77.7633 96.0562 84.2406C96.0524 84.2726 96.0371 84.3022 96.0131 84.3238C95.9891 84.3454 95.9581 84.3575 95.9258 84.3579Z" fill="white"/>
<path d="M98.4967 77.3354C98.4703 77.3353 98.4445 77.3272 98.4227 77.3124C98.4009 77.2975 98.384 77.2765 98.3741 77.252C98.363 77.2191 98.3649 77.1832 98.3794 77.1516C98.394 77.1201 98.4201 77.0954 98.4524 77.0825C100.554 76.3002 102.937 76.6705 103.039 76.6861C103.073 76.6919 103.103 76.7107 103.123 76.7385C103.143 76.7664 103.151 76.8009 103.146 76.8348C103.14 76.8684 103.121 76.8984 103.093 76.9187C103.066 76.9391 103.031 76.9482 102.997 76.9443C102.974 76.9443 100.58 76.5688 98.5436 77.3276C98.5285 77.3327 98.5126 77.3354 98.4967 77.3354Z" fill="white"/>
<path d="M96.6245 81.2835C96.6062 81.2833 96.5882 81.2792 96.5715 81.2716C96.5549 81.2639 96.5401 81.2529 96.528 81.2391C95.654 80.2213 95.0615 78.9923 94.8096 77.6745C94.807 77.6576 94.8078 77.6403 94.8119 77.6236C94.816 77.607 94.8233 77.5913 94.8335 77.5775C94.8437 77.5637 94.8565 77.552 94.8712 77.5432C94.8859 77.5343 94.9022 77.5285 94.9191 77.5259C94.9361 77.5233 94.9534 77.5241 94.97 77.5282C94.9867 77.5323 95.0024 77.5397 95.0162 77.5498C95.03 77.56 95.0416 77.5728 95.0505 77.5875C95.0593 77.6022 95.0652 77.6185 95.0678 77.6354C95.3171 78.9013 95.8872 80.082 96.7236 81.0644C96.7399 81.0836 96.7504 81.1071 96.7539 81.132C96.7574 81.1569 96.7538 81.1824 96.7434 81.2053C96.733 81.2283 96.7163 81.2478 96.6953 81.2616C96.6742 81.2755 96.6497 81.283 96.6245 81.2835Z" fill="white"/>
<path d="M29.7966 46.2372V86.5977L71.1064 62.7485L71.1038 26.0569L40.3887 43.7912L39.3274 40.7325L29.7966 46.2372Z" fill="#6869AC"/>
<path opacity="0.7" d="M29.7966 46.2372V86.5977L71.1064 62.7485L71.1038 26.0569L40.3887 43.7912L39.3274 40.7325L29.7966 46.2372Z" fill="#101723"/>
<path d="M29.7966 86.5977L31.914 49.9061L73.2237 26.0569L71.1064 62.7485L29.7966 86.5977Z" fill="#9A99C9"/>
<path d="M29.7966 86.5976L32.9727 50.5188L74.2824 26.667L71.1064 62.7485L29.7966 86.5976Z" fill="#6869AC"/>
<path opacity="0.7" d="M29.7966 86.5976L32.9727 50.5188L74.2824 26.667L71.1064 62.7485L29.7966 86.5976Z" fill="#101723"/>
<path d="M36.1514 49.9063V90.2695L77.4611 66.4177V29.726L46.7435 47.4604L45.6848 44.4016L36.1514 49.9063Z" fill="#6869AC"/>
<path opacity="0.5" d="M36.1514 49.9063V90.2695L77.4611 66.4177V29.726L46.7435 47.4604L45.6848 44.4016L36.1514 49.9063Z" fill="#101723"/>
<path d="M36.1514 90.2695L38.2687 53.5752L79.5785 29.726L77.4611 66.4177L36.1514 90.2695Z" fill="#9A99C9"/>
<path d="M36.1514 90.2694L39.3274 54.188L80.6372 30.3362L77.4611 66.4177L36.1514 90.2694Z" fill="#6869AC"/>
<path opacity="0.5" d="M36.1514 90.2694L39.3274 54.188L80.6372 30.3362L77.4611 66.4177L36.1514 90.2694Z" fill="#101723"/>
<path d="M71.0961 103.112C63.6801 98.8302 56.8012 94.1756 53.6616 88.7153L63.2055 83.2054L71.0961 103.112Z" fill="#9A99C9"/>
<path d="M43.5649 54.1879V94.5485L84.8747 70.6993V34.0076L54.157 51.742L53.0984 48.6832L43.5649 54.1879Z" fill="#6869AC"/>
<path opacity="0.2" d="M43.5649 54.1879V94.5485L84.8747 70.6993V34.0076L54.157 51.742L53.0984 48.6832L43.5649 54.1879Z" fill="#101723"/>
<path d="M55.4661 66.1203C55.3618 66.1203 55.3462 66.0004 55.3462 65.93V31.5096C55.3546 31.376 55.3938 31.2463 55.4607 31.1305C55.5277 31.0146 55.6206 30.9159 55.7321 30.842L85.5475 13.6318C85.5883 13.6063 85.635 13.592 85.6831 13.5901C85.7874 13.5901 85.8031 13.71 85.8031 13.7804V48.2009C85.7949 48.3348 85.7558 48.465 85.6888 48.5813C85.6218 48.6976 85.5289 48.7967 85.4171 48.871L55.6017 66.0812C55.5605 66.1055 55.5139 66.1189 55.4661 66.1203Z" fill="white"/>
<path d="M85.6673 13.7101C85.6694 13.7292 85.6694 13.7484 85.6673 13.7675V48.1879C85.6587 48.2989 85.6255 48.4066 85.57 48.5032C85.5145 48.5997 85.4382 48.6826 85.3466 48.7459L55.5312 65.9561L55.479 65.9796C55.4755 65.9606 55.4755 65.9412 55.479 65.9222V31.5018C55.488 31.3912 55.5214 31.2841 55.5769 31.188C55.6323 31.0919 55.7085 31.0094 55.7998 30.9464L85.6151 13.7362C85.6316 13.7247 85.6502 13.7167 85.6699 13.7127M85.6856 13.4519C85.6145 13.4541 85.5453 13.4747 85.4848 13.5119L55.6694 30.7221C55.5383 30.8082 55.4292 30.9238 55.3509 31.0597C55.2726 31.1955 55.2271 31.3478 55.2183 31.5044V65.9248C55.2183 66.1282 55.32 66.2456 55.479 66.2456C55.5501 66.2437 55.6194 66.223 55.6798 66.1856L85.4952 48.9754C85.6268 48.8899 85.7364 48.7744 85.8148 48.6385C85.8932 48.5025 85.9383 48.3499 85.9463 48.1931V13.7727C85.9463 13.5693 85.8446 13.4493 85.6856 13.4519Z" fill="#6869AC"/>
<path opacity="0.7" d="M85.6673 13.7101C85.6694 13.7292 85.6694 13.7484 85.6673 13.7675V48.1879C85.6587 48.2989 85.6255 48.4066 85.57 48.5032C85.5145 48.5997 85.4382 48.6826 85.3466 48.7459L55.5312 65.9561L55.479 65.9796C55.4755 65.9606 55.4755 65.9412 55.479 65.9222V31.5018C55.488 31.3912 55.5214 31.2841 55.5769 31.188C55.6323 31.0919 55.7085 31.0094 55.7998 30.9464L85.6151 13.7362C85.6316 13.7247 85.6502 13.7167 85.6699 13.7127M85.6856 13.4519C85.6145 13.4541 85.5453 13.4747 85.4848 13.5119L55.6694 30.7221C55.5383 30.8082 55.4292 30.9238 55.3509 31.0597C55.2726 31.1955 55.2271 31.3478 55.2183 31.5044V65.9248C55.2183 66.1282 55.32 66.2456 55.479 66.2456C55.5501 66.2437 55.6194 66.223 55.6798 66.1856L85.4952 48.9754C85.6268 48.8899 85.7364 48.7744 85.8148 48.6385C85.8932 48.5025 85.9383 48.3499 85.9463 48.1931V13.7727C85.9463 13.5693 85.8446 13.4493 85.6856 13.4519Z" fill="white"/>
<path d="M58.3945 32.8161L68.9866 26.7013V38.931L58.3945 45.0458V32.8161Z" fill="#6869AC"/>
<path opacity="0.8" d="M58.3945 32.8161L68.9866 26.7013V38.931L58.3945 45.0458V32.8161Z" fill="white"/>
<path d="M67.3984 29.7494V33.4261L67.0646 33.6113V32.4874C67.0646 31.8668 66.5613 31.6556 65.9355 32.0154L61.4478 34.61C60.8246 34.9698 60.3187 35.7651 60.3187 36.3858V37.5096L59.9875 37.7078V34.0389L67.3984 29.7494Z" fill="white"/>
<path d="M65.3593 39.1107C64.8169 39.4236 64.3762 39.095 64.3762 38.3727V32.4874L63.0124 33.2279V39.1602C63.0124 39.8799 62.5718 40.7248 62.0294 41.0299L61.0437 41.5983V41.9895L66.3398 38.9308V38.5422L65.3593 39.1107Z" fill="white"/>
<path d="M71.0959 26.0987C71.0959 26.4377 71.401 26.5342 71.7739 26.3204L82.0792 20.362C82.262 20.2583 82.4184 20.1138 82.536 19.9396C82.6536 19.7654 82.7293 19.5664 82.7572 19.3581C82.7572 19.0217 82.4521 18.9226 82.0792 19.139L71.7817 25.0844C71.5959 25.1878 71.437 25.3335 71.3178 25.5097C71.1987 25.6859 71.1227 25.8877 71.0959 26.0987Z" fill="#3E4551"/>
<path d="M71.0959 29.7494C71.0959 30.0884 71.401 30.1875 71.7739 29.971L82.0714 24.0257C82.2542 23.922 82.4106 23.7775 82.5282 23.6033C82.6458 23.4291 82.7215 23.2301 82.7493 23.0217C82.7493 22.6854 82.4443 22.5863 82.0714 22.8027L71.7739 28.7481C71.5914 28.8514 71.4352 28.9956 71.3176 29.1693C71.2 29.343 71.1242 29.5415 71.0959 29.7494Z" fill="#3E4551"/>
<path d="M71.0959 33.4261C71.0959 33.7651 71.401 33.8642 71.7739 33.6478L82.0714 27.7024C82.2539 27.5991 82.4101 27.4549 82.5277 27.2812C82.6453 27.1075 82.7211 26.909 82.7493 26.7011C82.7493 26.3621 82.4443 26.263 82.0714 26.4795L71.7739 32.4248C71.5914 32.5282 71.4352 32.6724 71.3176 32.8461C71.2 33.0198 71.1242 33.2183 71.0959 33.4261Z" fill="#3E4551"/>
<path d="M71.0959 37.0951C71.0959 37.4341 71.401 37.5332 71.7739 37.3168L82.0714 31.3714C82.2539 31.2681 82.4101 31.1239 82.5277 30.9502C82.6453 30.7765 82.7211 30.578 82.7493 30.3701C82.7493 30.0311 82.4443 29.932 82.0714 30.1485L71.7739 36.0938C71.5914 36.1972 71.4352 36.3414 71.3176 36.5151C71.2 36.6888 71.1242 36.8873 71.0959 37.0951Z" fill="#3E4551"/>
<path d="M58.3945 48.1044C58.3945 48.4434 58.697 48.5425 59.0725 48.3261L82.0794 35.0273C82.2622 34.9242 82.4186 34.7801 82.5362 34.6064C82.6539 34.4326 82.7296 34.2339 82.7574 34.0259C82.7574 33.687 82.4523 33.5905 82.0794 33.8043L59.0725 47.1031C58.8896 47.206 58.7331 47.35 58.6155 47.5238C58.4978 47.6976 58.4222 47.8964 58.3945 48.1044Z" fill="#3E4551"/>
<path d="M58.3945 51.7733C58.3945 52.1123 58.697 52.2114 59.0725 51.995L82.0794 38.7118C82.2623 38.6082 82.4186 38.4636 82.5363 38.2895C82.6539 38.1153 82.7296 37.9162 82.7574 37.7079C82.7574 37.3715 82.4523 37.2724 82.0794 37.4889L59.0725 50.772C58.8896 50.8749 58.7331 51.019 58.6155 51.1927C58.4978 51.3665 58.4222 51.5653 58.3945 51.7733Z" fill="#3E4551"/>
<path d="M58.3945 55.4449C58.3945 55.7813 58.697 55.8804 59.0725 55.6639L82.0794 42.3808C82.2623 42.2771 82.4186 42.1326 82.5363 41.9584C82.6539 41.7842 82.7296 41.5852 82.7574 41.3769C82.7574 41.0405 82.4523 40.9414 82.0794 41.1578L59.0725 54.441C58.8893 54.5441 58.7326 54.6886 58.6149 54.8628C58.4972 55.0371 58.4218 55.2364 58.3945 55.4449Z" fill="#3E4551"/>
<path d="M43.5649 94.5486L50.9784 62.1386L92.2881 38.2868L84.8747 70.6994L43.5649 94.5486Z" fill="#6869AC"/>
<path d="M53.6721 64.6756V88.7152L63.2055 83.2105V59.1736L53.6721 64.6756Z" fill="#6869AC"/>
<path opacity="0.2" d="M53.6721 64.6756V88.7152L63.2055 83.2105V59.1736L53.6721 64.6756Z" fill="#101723"/>
<path d="M71.1143 102.955C70.3033 102.35 62.4857 96.3764 58.5117 87.8312C54.2821 78.7463 54.2874 68.149 54.2874 64.162V64.0368L82.6268 47.6767C82.6268 51.7002 82.6268 62.3132 86.8746 71.4294C90.7574 79.7737 98.2751 85.6722 99.4668 86.5744L71.1143 102.955Z" fill="white"/>
<path d="M82.4965 47.9115C82.4965 52.1045 82.5773 62.5141 86.7573 71.4947C90.5097 79.5522 97.6441 85.3463 99.2321 86.5693L71.1221 102.799C70.0243 101.972 62.5014 96.0975 58.6317 87.787C54.4073 78.7282 54.4073 68.1517 54.4073 64.1699V64.1204L82.4861 47.9089M82.7468 47.4577L54.1466 63.9717C54.1466 67.7241 54.0684 78.6265 58.3839 87.8965C62.6317 96.9945 71.096 103.112 71.096 103.112L99.7041 86.5953C99.7041 86.5953 91.2294 80.4779 86.9946 71.3799C82.6764 62.1099 82.7573 51.2075 82.7573 47.4551L82.7468 47.4577Z" fill="#6869AC"/>
<path opacity="0.7" d="M82.4965 47.9115C82.4965 52.1045 82.5773 62.5141 86.7573 71.4947C90.5097 79.5522 97.6441 85.3463 99.2321 86.5693L71.1221 102.799C70.0243 101.972 62.5014 96.0975 58.6317 87.787C54.4073 78.7282 54.4073 68.1517 54.4073 64.1699V64.1204L82.4861 47.9089M82.7468 47.4577L54.1466 63.9717C54.1466 67.7241 54.0684 78.6265 58.3839 87.8965C62.6317 96.9945 71.096 103.112 71.096 103.112L99.7041 86.5953C99.7041 86.5953 91.2294 80.4779 86.9946 71.3799C82.6764 62.1099 82.7573 51.2075 82.7573 47.4551L82.7468 47.4577Z" fill="white"/>
<path d="M79.5211 52.9964L70.4779 58.2116C70.2969 58.3112 70.1426 58.4531 70.0282 58.6252C69.9138 58.7973 69.8426 58.9944 69.8208 59.1999C69.8338 59.5311 70.1494 59.6249 70.5222 59.4085L79.568 54.1933C79.7469 54.0946 79.8996 53.9546 80.0135 53.785C80.1273 53.6153 80.199 53.421 80.2226 53.218C80.2069 52.8738 79.8966 52.78 79.5211 52.9964Z" fill="#3E4551"/>
<path d="M79.7143 56.5556L70.6711 61.7708C70.4922 61.867 70.3406 62.0068 70.2303 62.1773C70.1199 62.3478 70.0545 62.5435 70.04 62.746C70.0687 63.0668 70.3973 63.1528 70.7702 62.9364L79.816 57.7212C79.9939 57.6254 80.1446 57.4858 80.2536 57.3156C80.3627 57.1454 80.4265 56.9503 80.4392 56.7485C80.4131 56.4252 80.0898 56.347 79.7143 56.5556Z" fill="#3E4551"/>
<path d="M80.0766 60.0159L71.0308 65.2311C70.6579 65.4475 70.3867 65.8778 70.431 66.1881C70.4753 66.4984 70.8169 66.5792 71.1924 66.3628L80.2382 61.1476C80.6111 60.9311 80.8771 60.5035 80.8302 60.1932C80.7832 59.8829 80.4494 59.7994 80.0766 60.0159Z" fill="#3E4551"/>
<path d="M80.619 63.3721L71.5732 68.5873C71.2003 68.8037 70.9421 69.2261 71.0047 69.5286C71.0673 69.8311 71.4219 69.8989 71.787 69.6825L80.8302 64.4673C81.2057 64.2508 81.456 63.831 81.3934 63.5285C81.3308 63.226 81.0049 63.1556 80.619 63.3721Z" fill="#3E4551"/>
<path d="M81.3544 66.6158L72.3086 71.8311C71.9357 72.0475 71.6932 72.4595 71.7871 72.7489C71.881 73.0384 72.2382 73.1036 72.6111 72.8871L81.6569 67.6719C82.0324 67.4555 82.2671 67.0461 82.1784 66.754C82.0898 66.462 81.7273 66.3994 81.3544 66.6158Z" fill="#3E4551"/>
<path d="M82.3088 69.7423L60.2641 82.47C59.8912 82.6865 59.6643 83.0881 59.766 83.3671C59.8677 83.6461 60.2563 83.6982 60.6291 83.4818L82.6739 70.7541C83.0494 70.5376 83.2658 70.1387 83.1641 69.857C83.0624 69.5754 82.6687 69.5259 82.3088 69.7423Z" fill="#3E4551"/>
<path d="M83.4692 72.7279L61.4271 85.4557C61.0516 85.6721 60.8456 86.0632 60.9707 86.3292C61.0959 86.5952 61.4923 86.6369 61.873 86.4205L83.9177 73.6927C84.2932 73.4763 84.494 73.0852 84.3688 72.8192C84.2436 72.5532 83.8447 72.5141 83.4692 72.7279Z" fill="#3E4551"/>
<path d="M84.9165 75.573L62.8718 88.3007C62.4963 88.5171 62.3112 88.8978 62.4598 89.1508C62.6084 89.4037 63.0335 89.4298 63.409 89.2134L85.438 76.4856C85.8109 76.2718 85.9908 75.8937 85.8422 75.6408C85.6936 75.3878 85.2816 75.3565 84.9165 75.573Z" fill="#3E4551"/>
<path d="M86.6036 78.2639L64.5615 90.989C64.186 91.2055 64.0191 91.5784 64.1886 91.8157C64.3581 92.0529 64.804 92.0764 65.1795 91.8574L87.2216 79.1296C87.5971 78.9132 87.7587 78.5455 87.5892 78.3056C87.4198 78.0657 86.9791 78.0475 86.6036 78.2639Z" fill="#3E4551"/>
<path d="M88.5278 80.822L66.4831 93.5471C66.1102 93.7635 65.9616 94.126 66.1493 94.3528C66.3371 94.5797 66.7986 94.5901 67.1741 94.3737L89.2188 81.6408C89.5917 81.4243 89.7404 81.0671 89.5474 80.8402C89.3544 80.6134 88.9033 80.5977 88.5278 80.822Z" fill="#3E4551"/>
<path d="M90.6531 83.2575L68.6162 95.9826C68.2407 96.1991 68.0947 96.5537 68.3138 96.7649C68.5328 96.9761 68.997 96.9813 69.3698 96.7649L91.4146 84.0372C91.7901 83.8208 91.9204 83.4713 91.7118 83.2549C91.5032 83.0385 91.0338 83.0437 90.6531 83.2575Z" fill="#3E4551"/>
<path d="M92.9999 85.5861L70.9552 98.3112C70.5823 98.5277 70.4598 98.8745 70.6944 99.0805C70.9291 99.2865 71.4089 99.2786 71.7844 99.0622L93.8109 86.3345C94.1838 86.118 94.3011 85.7791 94.0716 85.5705C93.8422 85.3618 93.365 85.3697 92.9999 85.5861Z" fill="#3E4551"/>
<path d="M67.2004 60.1125L56.8013 66.11C56.916 69.878 57.3463 75.3122 58.9213 80.7856L69.323 74.7881C67.7454 69.3147 67.3151 63.8779 67.2004 60.1125Z" fill="#6869AC"/>
<path opacity="0.8" d="M67.2004 60.1125L56.8013 66.11C56.916 69.878 57.3463 75.3122 58.9213 80.7856L69.323 74.7881C67.7454 69.3147 67.3151 63.8779 67.2004 60.1125Z" fill="white"/>
<path d="M61.0412 65.2808C61.0553 65.0375 61.0174 64.7941 60.9302 64.5666C60.843 64.3391 60.7084 64.1328 60.5354 63.9613L56.8013 66.1152C56.8326 67.1113 56.8847 68.2247 56.976 69.4242C57.4617 69.4801 57.953 69.3893 58.3867 69.1635C59.8548 68.4907 61.0412 66.7462 61.0412 65.2808Z" fill="#6869AC"/>
<path opacity="0.6" d="M61.0412 65.2808C61.0553 65.0375 61.0174 64.7941 60.9302 64.5666C60.843 64.3391 60.7084 64.1328 60.5354 63.9613L56.8013 66.1152C56.8326 67.1113 56.8847 68.2247 56.976 69.4242C57.4617 69.4801 57.953 69.3893 58.3867 69.1635C59.8548 68.4907 61.0412 66.7462 61.0412 65.2808Z" fill="white"/>
<path d="M68.4389 71.1896C67.7453 70.316 66.3345 67.6172 65.7322 66.4411C65.7085 66.3947 65.6714 66.3563 65.6258 66.3311C65.5801 66.3059 65.5279 66.295 65.476 66.2998C65.424 66.3046 65.3747 66.3248 65.3344 66.3579C65.294 66.391 65.2646 66.4354 65.2498 66.4855C64.5981 68.713 64.2198 71.0115 64.1233 73.3304C63.2548 72.641 62.5082 71.8107 61.9147 70.8741C61.8893 70.8378 61.8542 70.8095 61.8133 70.7925C61.7725 70.7755 61.7276 70.7706 61.684 70.7783C61.6405 70.7859 61.6 70.8059 61.5674 70.8358C61.5348 70.8657 61.5114 70.9043 61.5 70.9471C60.3631 75.3253 60.9342 79.633 60.9342 79.633L69.3229 74.7881C68.9734 73.5782 68.684 72.3735 68.4389 71.1896Z" fill="#6869AC"/>
<path opacity="0.6" d="M68.4389 71.1896C67.7453 70.316 66.3345 67.6172 65.7322 66.4411C65.7085 66.3947 65.6714 66.3563 65.6258 66.3311C65.5801 66.3059 65.5279 66.295 65.476 66.2998C65.424 66.3046 65.3747 66.3248 65.3344 66.3579C65.294 66.391 65.2646 66.4354 65.2498 66.4855C64.5981 68.713 64.2198 71.0115 64.1233 73.3304C63.2548 72.641 62.5082 71.8107 61.9147 70.8741C61.8893 70.8378 61.8542 70.8095 61.8133 70.7925C61.7725 70.7755 61.7276 70.7706 61.684 70.7783C61.6405 70.7859 61.6 70.8059 61.5674 70.8358C61.5348 70.8657 61.5114 70.9043 61.5 70.9471C60.3631 75.3253 60.9342 79.633 60.9342 79.633L69.3229 74.7881C68.9734 73.5782 68.684 72.3735 68.4389 71.1896Z" fill="white"/>
</svg>
