<svg width="64" height="48" viewBox="0 0 64 48" fill="none" xmlns="http://www.w3.org/2000/svg">
<path d="M32.4951 33.7426C43.9951 15.7424 63.4951 18 63.4951 33.7426C63.4951 51.5 44.5 53 32.4951 33.7426Z" fill="white"/>
<path d="M3.99511 22.7424C-7.50487 35.2424 7.99515 54.2424 22.9951 40.2424C22.9951 40.2424 26.3133 37.3883 29 33.7426C32.4951 29 33.9903 26.4848 38.9951 22.7424C44 19 52.0402 18.0757 54.4951 18.7424C51.1618 15.7424 38.9951 3.74235 38.9951 3.74235C34.5951 -1.05765 27.4952 -1.25745 22.9951 3.24241C17.4952 8.74237 3.99511 22.7424 3.99511 22.7424Z" fill="white"/>
</svg>
