<svg width="19" height="19" viewBox="0 0 19 19" fill="none" xmlns="http://www.w3.org/2000/svg">
<path d="M16.6562 7.61719H11.3828V2.34375C11.3828 1.69666 10.858 1.17188 10.2109 1.17188H9.03906C8.39197 1.17188 7.86719 1.69666 7.86719 2.34375V7.61719H2.59375C1.94666 7.61719 1.42188 8.14197 1.42188 8.78906V9.96094C1.42188 10.608 1.94666 11.1328 2.59375 11.1328H7.86719V16.4062C7.86719 17.0533 8.39197 17.5781 9.03906 17.5781H10.2109C10.858 17.5781 11.3828 17.0533 11.3828 16.4062V11.1328H16.6562C17.3033 11.1328 17.8281 10.608 17.8281 9.96094V8.78906C17.8281 8.14197 17.3033 7.61719 16.6562 7.61719Z" fill="#8886BE"/>
</svg>
